<?xml version="1.0" encoding="utf-8"?>
<!DOCTYPE svg PUBLIC "-//W3C//DTD SVG 1.0//EN" "http://www.w3.org/TR/2001/REC-SVG-20010904/DTD/svg10.dtd">
<svg version="1.0" xmlns="http://www.w3.org/2000/svg" width="543px" height="428px" viewBox="0 0 543 428" preserveAspectRatio="xMidYMid meet">
 <g fill="#fafcfd">
  <path d="M94.8 404.3 c-3.8 -0.9 -1.5 -2.3 3.7 -2.3 3 0 5.5 0.5 5.5 1 0 0.6 -0.6 1 -1.2 1.1 -0.7 0 -2.4 0.2 -3.8 0.3 -1.4 0.2 -3.3 0.1 -4.2 -0.1z"/>
  <path d="M121 403 c0 -0.5 0.7 -1 1.5 -1 2.2 0 3 -2.7 1.4 -4.6 -1.1 -1.4 -0.9 -1.5 2.2 -1.2 3.1 0.3 3.4 0.6 3.7 4.1 l0.3 3.7 -4.5 0 c-2.5 0 -4.6 -0.4 -4.6 -1z"/>
  <path d="M248 401.6 c0 -1.3 3.3 -12 7.4 -23.7 l7.4 -21.4 3.8 0 3.9 0 4.2 19.5 c2.3 10.7 4.7 20.3 5.3 21.2 0.5 1 1 2.9 1 4.3 l0 2.5 -16.5 0 -16.5 0 0 -2.4z"/>
  <path d="M408 400.8 c0 -4.5 5.1 -9.2 13 -12.2 9.7 -3.6 22 -6.6 26.9 -6.6 4.1 0 5.5 1.3 2.6 2.4 -1.2 0.4 -1.5 2.4 -1.5 9.1 0 6.2 -0.4 8.7 -1.3 9.1 -0.7 0.2 -10 0.6 -20.5 0.7 l-19.2 0.2 0 -2.7z"/>
  <path d="M480 348.5 c0 -2.8 0.4 -3.5 2 -3.5 2.1 0 2.4 1 1.4 4.8 -1 3.6 -3.4 2.7 -3.4 -1.3z"/>
  <path d="M482.4 335.8 c0.3 -2.9 0.6 -6.3 0.6 -7.5 0 -1.7 0.6 -2.3 2.1 -2.3 2 0 2.1 0.4 1.5 4.8 -1.2 8.6 -1.7 10.2 -3.3 10.2 -1.3 0 -1.5 -0.9 -0.9 -5.2z"/>
  <path d="M137.3 335.3 c-4.1 -0.4 -4.2 -0.5 -4.9 -4.9 -0.3 -2.5 -0.4 -4.8 0 -5.1 0.8 -0.9 3.6 1.7 3.6 3.4 0 1.6 2.4 2.8 4 1.8 0.7 -0.4 0.3 -1.6 -1.1 -3.3 l-2.1 -2.7 2.6 -0.3 c4.2 -0.5 8.5 3.5 8.5 8.1 0.1 4.1 0.5 4 -10.6 3z"/>
  <path d="M390 331.9 c0 -1.8 0.6 -3.7 1.4 -4.3 29.4 -22.8 35.6 -28 35.6 -29.7 0 -1.5 0.7 -1.9 3.5 -1.9 2.4 0 3.5 0.5 3.5 1.5 0 2.6 2.5 1.7 7.4 -2.6 3.8 -3.4 4.6 -4.7 4.6 -7.6 0 -2.5 0.9 -4.6 3.5 -7.6 1.9 -2.2 3.5 -4.4 3.5 -4.9 0 -0.4 1.2 -0.8 2.6 -0.8 1.6 0 2.3 0.4 1.8 1.1 -0.3 0.6 1.5 3.3 4.2 6 3.5 3.5 5.6 4.9 7.6 4.9 2.1 0 2.8 0.5 2.8 2 0 1.3 -0.7 2 -2 2 -4 0 -12.9 4.2 -17.5 8.2 -2.6 2.3 -7.8 8.3 -11.7 13.4 -13.3 17.8 -23.3 23.3 -42.5 23.4 l-8.3 0 0 -3.1z"/>
  <path d="M116 330.5 c0 -3.9 0.8 -4.2 5.9 -2.4 2.7 0.9 3.5 0.8 5.1 -0.6 1.9 -1.8 2 -1.7 2 1.7 0 3.4 -0.1 3.5 -4.6 4.2 -8.1 1.1 -8.4 1 -8.4 -2.9z"/>
  <path d="M102 315.4 c0 -3.9 0.9 -3.8 4 0.6 l2.1 3 -3 0 c-2.9 0 -3.1 -0.3 -3.1 -3.6z"/>
  <path d="M183.8 312.8 c-1.7 -0.6 -2.8 -1.7 -2.8 -2.9 0 -1.4 -0.7 -1.9 -2.6 -1.9 -1.7 0 -2.8 -0.6 -3.1 -2 -0.3 -1.1 -0.9 -2 -1.4 -2 -0.4 0 -1.1 -1.5 -1.4 -3.3 -0.5 -2.6 -2.3 -4.6 -8.3 -9.3 -15.7 -12.4 -29.9 -20.6 -48 -28 -6.2 -2.5 -10.8 -5 -11 -5.9 -0.2 -0.8 0.3 -1.5 1.2 -1.5 1.3 0 1.6 -1.2 1.6 -5.8 0 -4.6 0.4 -6.3 2 -7.7 2.5 -2.2 2.7 -8.1 0.3 -10.7 -1.5 -1.7 -1.4 -1.8 1.7 -1.8 2.5 0 4.7 1.3 9.9 5.8 3.6 3.2 12.2 10.4 19.1 15.9 6.9 5.6 16.7 14.4 21.8 19.6 5.1 5.3 9.5 9 9.7 8.4 3.2 -9.1 4.9 -12.7 6.1 -12.7 0.8 0 1.4 -0.9 1.4 -1.9 0 -3.8 1.1 -5.1 4.6 -5.1 3.1 0 3.4 0.3 3.4 2.9 0 3.9 -0.9 6.1 -2.5 6.1 -0.7 0 -1.5 1.2 -1.8 2.8 -0.3 1.5 -1.8 6.2 -3.3 10.5 -2.5 7.2 -2.7 8.2 -1.5 12.5 0.7 2.6 1.9 5.1 2.7 5.5 0.8 0.4 1.4 1.7 1.4 2.7 0 1.1 0.7 2 1.5 2 0.8 0 3.3 0.6 5.5 1.2 3.6 1.2 4 1.6 4 4.5 0 3.2 -0.2 3.3 -3.7 3.2 -2.1 0 -5 -0.5 -6.5 -1.1z"/>
  <path d="M196 310.6 c0 -3 0.3 -3.4 3.4 -3.9 1.8 -0.3 8.6 -2.6 15 -5.1 6.5 -2.5 13.1 -4.6 14.7 -4.6 2.6 0 2.9 0.3 2.9 3.3 0 3 -0.4 3.4 -4.7 5.1 -13.5 5.3 -24.2 8.6 -27.5 8.6 -3.6 0 -3.8 -0.1 -3.8 -3.4z"/>
  <path d="M351 312.9 c-1.9 -0.4 -7.5 -2.4 -12.5 -4.4 -4.9 -1.9 -9.8 -3.5 -10.7 -3.5 -1.4 0 -1.8 -0.8 -1.8 -3.5 0 -3.5 0 -3.5 4.3 -3.5 2.8 0 8 1.5 14.3 4 5.4 2.2 11.5 4.3 13.6 4.7 3.5 0.5 3.8 0.8 3.8 3.9 0 3.3 -0.1 3.4 -3.7 3.3 -2.1 -0.1 -5.4 -0.5 -7.3 -1z"/>
  <path d="M363 310.5 c0 -3.3 0.2 -3.5 3.4 -3.5 2.1 0 3.6 -0.6 4 -1.5 0.3 -0.9 1.8 -1.5 3.6 -1.5 2.4 0 3 -0.4 3 -2.2 0 -1.2 0.5 -3.7 1.2 -5.5 1 -2.8 1.7 -3.3 4.5 -3.3 3 0 3.3 0.3 3.3 2.9 0 1.5 -0.5 4.2 -1.1 6 -0.9 2.5 -1.6 3.1 -3.9 3.1 -2.5 0 -2.9 0.4 -3.2 3.3 -0.3 2.8 -0.7 3.2 -3.5 3.5 -1.8 0.2 -3.3 0.7 -3.3 1.3 0 0.5 -1.8 0.9 -4 0.9 -3.9 0 -4 -0.1 -4 -3.5z"/>
  <path d="M254 301.5 c0 -3.3 0.2 -3.5 3.5 -3.5 3.3 0 3.5 0.2 3.5 3.5 0 3.3 -0.2 3.5 -3.5 3.5 -3.3 0 -3.5 -0.2 -3.5 -3.5z"/>
  <path d="M238 300.5 c0 -3.3 0.2 -3.5 3.5 -3.5 3.3 0 3.5 0.2 3.5 3.5 0 3.3 -0.2 3.5 -3.5 3.5 -3.3 0 -3.5 -0.2 -3.5 -3.5z"/>
  <path d="M34.8 296.1 c-2.7 -0.9 -4.8 -1.9 -4.8 -2.3 0 -0.3 1.4 -1.1 3 -1.7 1.8 -0.6 3 -0.6 3 0 0 0.5 0.9 0.9 2 0.9 1.5 0 2 0.7 2 2.5 0 1.4 -0.1 2.5 -0.2 2.4 -0.2 -0.1 -2.4 -0.8 -5 -1.8z"/>
  <path d="M77 290.4 c0 -1.4 0.3 -2.4 0.8 -2.2 7.3 3.5 8 4.8 2.7 4.8 -3.1 0 -3.5 -0.3 -3.5 -2.6z"/>
  <path d="M48 288.6 c0 -1.3 2.8 -2.6 5.8 -2.6 0.6 0 1.2 0.9 1.2 2 0 1.6 -0.7 2 -3.5 2 -2.3 0 -3.5 -0.5 -3.5 -1.4z"/>
  <path d="M378.8 286.8 c-0.6 -4.2 -3.9 -12.9 -5.5 -14.6 -0.7 -0.7 -1.3 -2.4 -1.3 -3.8 0 -1.4 -0.6 -2.4 -1.4 -2.4 -3.2 0 -3.6 -8 -0.6 -11 2.4 -2.4 2.1 -3 -3.1 -7.7 -3.1 -2.8 -3.9 -4.3 -3.9 -6.9 0 -3.2 0.2 -3.4 3.3 -3.4 2.8 0 4.3 1 8.6 5.6 5 5.3 5.3 5.9 4.8 9.7 -0.3 2.2 -1 4.3 -1.5 4.6 -0.5 0.3 -1.3 2.1 -1.7 3.9 -0.5 2.5 -0.3 3.2 0.8 3.2 0.9 0 1.7 0.4 1.9 1 0.3 0.9 15.4 -11 36.8 -29.1 8 -6.8 11.2 -8.9 13.5 -8.9 2.2 0 2.6 0.3 1.7 1.2 -0.8 0.8 -1.2 5.5 -1.2 14.5 0 11.4 0.2 13.3 1.6 13.3 0.9 0 1.4 0.7 1.2 1.5 -0.2 0.9 -4.3 3.2 -9.8 5.4 -11.6 4.7 -22.3 10 -30.7 15.3 -6 3.8 -6.3 4.2 -6.3 7.9 0 3.8 -0.1 3.9 -3.4 3.9 -3.1 0 -3.4 -0.3 -3.8 -3.2z"/>
  <path d="M425.2 283.3 l0.3 -3.8 5.8 -0.9 c7.9 -1.2 10.7 0.1 10.7 4.9 0 3.3 -0.2 3.5 -3.3 3.5 -1.8 0 -3.8 -0.5 -4.4 -1.1 -0.8 -0.8 -1.3 -0.8 -1.7 0 -0.4 0.6 -2.3 1.1 -4.2 1.1 -3.5 0 -3.5 -0.1 -3.2 -3.7z"/>
  <path d="M178 252 c0 -4.4 0.4 -7 1.1 -7 0.6 0 2 -1.1 3.1 -2.5 1.4 -1.8 2.9 -2.5 5.4 -2.5 3.2 0 3.4 0.2 3.4 3.3 0 3.3 -2.4 6.7 -4.8 6.7 -0.8 0 -1.2 1.7 -1.2 4.5 0 4.5 0 4.5 -3.5 4.5 l-3.5 0 0 -7z"/>
  <path d="M192 237 c0 -1.6 0.5 -3.9 1.2 -4.9 1.3 -2.1 0.6 -3.3 -9.1 -15.6 -12.5 -16 -28.6 -28.7 -48.4 -38 -12.2 -5.8 -22.1 -8.1 -28.2 -6.6 -8.2 2.1 -13.7 0.9 -8.5 -1.9 1.4 -0.7 2 -2.1 2 -4.3 0 -2.4 1.1 -4.2 4.4 -7.7 4 -4.1 4.5 -5.1 5.2 -10.7 0.5 -5.3 0.4 -6.4 -1 -6.9 -2.9 -1.1 -1.7 -2.4 2.2 -2.4 5.2 0 8.2 1 8.2 2.6 0 1.1 0.7 1.3 2.8 0.8 6.2 -1.5 15.4 -5.8 17.1 -8 2.4 -3 3.4 -11.3 2.6 -20.1 l-0.7 -6.8 -4.2 0.3 -4.1 0.3 -3.3 -6.3 c-3.5 -6.8 -4.4 -12.1 -1.7 -9.8 2.3 1.9 3.8 0.8 11.3 -9.2 9.2 -12.3 26.5 -28.8 38.2 -36.7 30.2 -20.2 62.6 -29.3 98.6 -27.8 31.1 1.4 59.2 10.9 87.4 29.7 9.7 6.5 17.3 13.2 34.7 30.5 8.3 8.2 12.6 11.8 13.3 11.1 0.7 -0.7 1 0 1 2 0 1.7 -0.8 3.8 -1.7 4.7 -1 0.8 -3.1 4.1 -4.8 7.2 -2.9 5.4 -3.1 5.6 -6.7 5.3 l-3.7 -0.3 -0.7 6.3 c-0.9 9 0.2 17.1 2.8 19.9 2 2.1 11.3 6.3 17.1 7.7 2 0.5 2.7 0.3 2.7 -0.8 0 -0.9 1.8 -1.8 5 -2.5 5.5 -1.2 11 -1.4 11 -0.5 0 0.9 -2.4 3 -4.3 3.7 -2.8 1.1 -3.6 4.7 -2.1 9.7 0.8 2.5 1.4 7.1 1.4 10.3 0 5 0.3 6 2 6.4 3.4 0.9 2.4 3.3 -1.3 3.3 -22.1 0 -57.5 21.2 -75.6 45.3 -3.8 5 -4.7 5.7 -7.8 5.7 -2.6 0 -4.6 -0.9 -7.2 -3.2 -7.1 -6.3 -8.6 -7.4 -12.1 -8.8 -1.9 -0.7 -6.4 -3 -10 -4.9 -5.8 -3.2 -7.5 -3.6 -16.5 -4.2 -5.5 -0.3 -11.3 -1.1 -12.8 -1.7 l-2.8 -1.2 0.3 -10.1 c0.2 -7.8 0.6 -10.4 1.8 -11 0.8 -0.4 4 -1.9 7 -3.2 8.6 -3.8 11 -6.6 11 -12.7 0 -3.4 0.8 -6.7 2.5 -10 4.3 -8.5 3.1 -13.7 -5.2 -20.9 -7.8 -6.9 -25.6 -14.1 -34.9 -14.1 -4.1 0 -13.3 4.8 -15.8 8.3 -2 2.7 -2 2.9 -0.3 5.8 2.2 4 2.2 8.4 -0.2 11.7 -3.1 4.5 -5.4 13 -4.7 17.3 1.8 11.2 7.3 19.7 15.6 23.9 l4 2 0 6.4 0 6.4 -8.7 0.4 c-13.5 0.6 -14.4 1.2 -47.3 30.9 -3.6 3.3 -6.9 5.9 -7.5 5.9 -0.6 0 -1.5 1 -2 2.3 -0.7 1.6 -2 2.3 -4.7 2.5 -3.6 0.3 -3.8 0.2 -3.8 -2.8z m-8 -59 c0 -0.5 -1 -1 -2.2 -1 -1.3 0 -4.5 -0.7 -7.2 -1.5 -5.7 -1.7 -6.6 -1.8 -6.6 -0.6 0 0.9 9.9 3.8 13.8 4 1.2 0.1 2.2 -0.3 2.2 -0.9z m179.1 -0.7 c3.8 -0.9 6.9 -2 6.9 -2.5 0 -1.1 -0.9 -1 -6.6 0.7 -2.7 0.8 -5.9 1.5 -7.1 1.5 -1.3 0 -2.3 0.5 -2.3 1 0 1.4 1.1 1.3 9.1 -0.7z m-175.9 -16.1 c0 -4.9 -2.9 -13.3 -5.1 -14.6 -1.5 -1 -1.4 2.6 0.4 10.2 1.6 6.5 3.3 10.7 4.1 9.9 0.3 -0.3 0.5 -2.7 0.6 -5.5z m167.8 -2.2 c1.1 -4.5 2 -9.3 1.8 -10.8 l-0.3 -2.7 -1.9 2.8 c-1.1 1.6 -2.5 4.9 -3.1 7.3 -1.1 4.6 -0.9 11.4 0.5 11.4 0.4 0 1.8 -3.6 3 -8z m-162.6 -54.4 c3.4 -7.1 3.1 -12.3 -0.5 -8 -0.9 1.1 -2.6 1.5 -5.7 1.2 -7.8 -0.5 -8.2 3.8 -0.7 8.4 4.2 2.5 5 2.3 6.9 -1.6z m176.6 -1.9 c4.2 -1.4 4.6 -4.1 0.8 -4.5 -2.3 -0.3 -2.8 -0.8 -2.8 -3.1 0 -1.5 -0.8 -3.6 -1.9 -4.5 -1.8 -1.6 -2 -1.6 -4 1 -2 2.6 -3 10.2 -1.4 11.7 1 1 5.4 0.7 9.3 -0.6z m-69.6 -8.7 c2.7 -4.1 3.7 -8 1.2 -4.7 -2 2.7 -7 2.2 -8.6 -0.8 -1.6 -2.9 -3.4 -2.8 -3.8 0.2 -0.3 1.9 5.9 9.3 7.8 9.3 0.4 0 1.9 -1.8 3.4 -4z m-59.6 -35.5 c1.7 -1.9 3.6 -5.1 4.1 -7.2 1 -3.4 0.8 -4 -1.4 -6.2 l-2.5 -2.5 -3 2.2 c-2.3 1.7 -4.2 2.2 -7.5 2.1 -3.1 -0.2 -5.1 0.2 -6.2 1.3 -1.4 1.5 -1.4 1.9 0.7 4.8 2.1 2.9 10.3 9 12.1 9 0.4 0 2.1 -1.6 3.7 -3.5z m80.9 -2.2 c7.7 -6.2 6.8 -10.5 -2.2 -9.6 -4.2 0.4 -5.7 0.2 -7 -1.1 -2 -2 -2.9 -2 -4.9 0 -2.9 2.8 -1.9 6.4 2.9 11.1 5 4.7 4.9 4.7 11.2 -0.4z"/>
  <path d="M443 213.3 c0 -1.9 1.4 -5.1 3.4 -8.2 1.9 -2.8 4 -6.7 4.7 -8.6 0.9 -2.3 1.9 -3.5 3.2 -3.5 1.7 0 1.8 0.5 1.2 3.8 -0.8 4.4 -5.8 13.2 -9.7 16.9 l-2.8 2.7 0 -3.1z"/>
  <path d="M82.7 185.1 c0.3 -1 1.8 -3.4 3.3 -5.2 l2.9 -3.4 0.1 3.8 c0 2 -0.4 3.7 -1 3.7 -0.5 0 -1 0.7 -1 1.5 0 0.9 -0.9 1.5 -2.4 1.5 -1.9 0 -2.3 -0.4 -1.9 -1.9z"/>
 </g>
 <g fill="#d8eff7">
  <path d="M123.5 403 c-0.3 -0.5 0.3 -1 1.4 -1 3 0 2.6 -1.3 -1.8 -5.3 -4.2 -3.8 -11.7 -6.5 -31.4 -11.6 -13.9 -3.6 -20.4 -6.9 -25.8 -13 -8.1 -9.2 -11.7 -20.3 -14.8 -46.1 -2 -17.3 -3.8 -22.1 -9.6 -26.5 -1.9 -1.5 -5.4 -3.3 -7.7 -4 l-4.3 -1.2 3 -1.5 c9.5 -4.8 15.8 -6.2 28.5 -6.2 12.2 -0.1 12.7 0 19.3 3.2 3.7 1.8 7.2 4.2 7.7 5.3 0.6 1 1.7 1.9 2.5 1.9 0.8 0 4 3.7 7.2 8.3 7.6 10.9 15.6 18.8 22.3 21.9 5 2.4 5.5 2.5 6.7 1 1.1 -1.5 1.2 -1.2 1.3 2 0 3.5 -0.2 3.7 -3.6 4 -2.3 0.2 -4.1 1 -4.8 2.1 -0.9 1.5 -0.6 2.2 1.8 4.2 2.6 2.1 9.3 3.9 10.6 2.8 0.2 -0.2 0.6 -3.5 0.8 -7.4 0.3 -5 0.8 -6.9 1.8 -6.9 0.8 0 1.4 0.6 1.4 1.4 0 0.9 1.5 1.5 4.5 1.8 2.5 0.2 4.5 0.1 4.5 -0.2 0 -0.3 -1.6 -1.6 -3.4 -3 -1.9 -1.4 -3.9 -3.3 -4.5 -4.2 -1.9 -3 4.2 -2.3 8 1 l3.3 2.7 21.7 0 21.7 0 -3.9 -7.5 c-2.1 -4.2 -3.9 -8.1 -3.9 -8.7 0 -0.7 -1.2 -1.3 -2.7 -1.5 -1.7 -0.2 -3.2 -1.2 -3.8 -2.5 -0.5 -1.3 -1.5 -2.3 -2.2 -2.3 -0.7 0 -1.3 -0.9 -1.3 -2 0 -1.1 -0.4 -2 -1 -2 -0.5 0 -1 -0.8 -1 -1.7 -0.1 -2.2 -2.3 -5.3 -3.8 -5.3 -0.6 0 -1.7 -0.8 -2.4 -1.7 -0.7 -1 -2.1 -2.2 -2.9 -2.8 -0.9 -0.5 -6.5 -4.3 -12.5 -8.3 -16.8 -11.3 -45.4 -24.2 -53.8 -24.2 -2 0 -2.6 -0.5 -2.6 -2.1 0 -2 0.3 -2.1 5.3 -1.5 16.8 2.3 48.1 18 68.7 34.5 3.5 2.9 6.6 4.8 6.8 4.2 1 -3.1 -20.9 -25.8 -38.8 -40.1 -26.1 -20.9 -43.6 -37.8 -49.9 -48.3 -2.5 -4.3 -3.4 -7.1 -3.8 -11.9 -0.4 -5.7 -0.2 -6.7 2.6 -11 3.4 -5.3 9.7 -10.3 15 -11.9 11.6 -3.4 23.4 -1.7 38.9 5.6 24.1 11.4 42.1 27.3 57.7 50.8 3 4.5 4.1 5.5 5.1 4.6 1.1 -0.9 1.4 -0.6 1.4 1.7 -0.1 2.4 -1.7 4.3 -8.6 10.4 -4.7 4.1 -9 7.8 -9.6 8.1 -0.8 0.5 -0.4 1.9 1 4.4 3 5 2.7 8.8 -1.2 15.9 -5 9.1 -7 15.9 -6.2 22 0.3 2.8 1 5.2 1.6 5.4 0.5 0.2 1 1 1 1.7 0 0.7 0.9 1.5 2.1 1.8 1.1 0.3 2.3 1.4 2.6 2.5 1 3.9 16.5 3.4 24.5 -0.8 5.5 -3 14.7 -6 18 -6 l3.8 0 0 4.6 c0 4.5 -7.3 24.5 -9.2 25.2 -0.4 0.2 -0.8 1.1 -0.8 2 0 2.6 -24.1 62.2 -25.1 62.2 -0.5 0 -0.9 1.1 -0.9 2.4 0 1.3 -0.7 4 -1.5 6 l-1.5 3.6 -34.5 0 c-21.8 0 -34.6 -0.4 -35 -1z"/>
  <path d="M274 403 c0 -0.5 1 -1 2.2 -1 1.7 0 1.9 -0.3 1 -1.2 -2 -2 -1.4 -3.8 1.3 -3.8 2.2 0 2.5 0.4 2.5 3.5 0 3.3 -0.2 3.5 -3.5 3.5 -1.9 0 -3.5 -0.4 -3.5 -1z"/>
  <path d="M328.5 402.8 c-0.5 -1.6 -4.4 -23.3 -5.6 -31.3 -0.4 -3.3 -1.5 -9.4 -2.4 -13.5 -1.9 -9.3 -1.9 -17.7 0 -25.6 1.7 -7.4 2 -12.7 1 -22.6 -0.7 -7.5 -0.7 -7.8 1.3 -7.8 1.2 0 2.6 -0.9 3.2 -2 1.6 -3 5.8 -2.5 18 2.3 13.1 5 13.1 5 6.6 17.6 l-4.4 8.6 22.1 0.2 c20.9 0.2 22.2 0.1 23.5 -1.8 0.7 -1 1.9 -1.9 2.5 -1.9 0.7 0 1.8 -0.9 2.5 -2 0.7 -1.1 1.6 -2 2.1 -2 0.5 0 2.6 -1.6 4.7 -3.5 2.1 -1.9 4.3 -3.5 4.9 -3.5 0.5 0 1.6 -0.9 2.3 -2 0.7 -1.1 1.8 -2 2.6 -2 0.8 0 1.6 -0.7 2 -1.5 0.3 -0.8 1.2 -1.5 2.1 -1.5 0.8 0 1.5 -0.4 1.5 -0.9 0 -2 9.8 -8.1 12.9 -8.1 2.8 0 3.1 0.3 3.1 3.1 0 2.7 -0.2 3 -1.5 1.9 -1.8 -1.5 -2.2 -1.3 -24.6 16.3 l-15.7 12.2 4.5 0.3 c9.3 0.6 21.2 -3.6 29.1 -10.4 2.3 -1.9 7.2 -7.6 11 -12.8 13.6 -18.1 20.6 -22 39.2 -22 14.5 0 22.3 2.3 22.8 6.6 0.3 2.3 -0.8 3.9 -5.7 8.7 -5.7 5.4 -6.1 6.1 -6.1 10.2 0 6.6 -2.8 28.4 -4.6 36.4 -3.7 15.9 -11.8 27.1 -23.4 32.3 -3.6 1.6 -11 3.9 -16.5 5.2 -16 3.6 -25.9 7.6 -29.6 11.8 l-3.2 3.6 2.4 0.6 c5.5 1.4 -8.9 2 -45.8 2 -29.8 0 -38.5 -0.3 -38.8 -1.2z"/>
  <path d="M274.6 392.8 c-1 -3.8 -0.7 -4.8 1.4 -4.8 1.6 0 2 0.7 2 3.5 0 4 -2.4 4.9 -3.4 1.3z"/>
  <path d="M272.6 383.8 c-1 -3.8 -0.7 -4.8 1.4 -4.8 1.6 0 2 0.7 2 3.5 0 4 -2.4 4.9 -3.4 1.3z"/>
  <path d="M255 381.4 c0 -1.5 1 -5.8 2.2 -9.6 1.9 -5.7 2.5 -6.8 4.5 -6.8 l2.2 0 -3.2 9.2 c-3.2 9.3 -5.7 12.4 -5.7 7.2z"/>
  <path d="M115.5 308.5 c-8.2 -6.3 -16.6 -12.8 -18.5 -14.4 l-3.5 -3 3.8 0 c2.5 -0.1 4 0.4 4.3 1.4 0.4 0.8 1.2 1.5 2 1.5 0.8 0 1.4 0.7 1.4 1.5 0 0.8 0.9 1.5 2 1.5 1.1 0 2.3 0.7 2.6 1.5 0.4 0.8 1.3 1.5 2 1.5 0.8 0 1.7 0.6 2 1.4 0.3 0.8 1.4 1.6 2.5 1.9 1 0.3 1.9 1.2 1.9 2.1 0 0.9 0.8 1.6 2 1.6 1.1 0 2.3 0.7 2.6 1.5 0.4 0.8 1.3 1.5 2 1.5 0.8 0 1.7 0.6 2 1.4 0.3 0.8 1.4 1.6 2.5 1.9 1.4 0.4 1.9 1.4 1.9 3.6 0 1.7 -0.1 3.1 -0.2 3.1 -0.2 0 -7 -5.2 -15.3 -11.5z"/>
  <path d="M365 310.6 c0 -3.6 1.5 -4.6 7.4 -4.6 2.5 0 2.7 0.2 1.5 1.7 -1 1.1 -1 1.4 -0.1 0.9 0.8 -0.5 1.2 0 1.2 1.7 0 2.8 -1.6 3.7 -6.6 3.7 -3.2 0 -3.4 -0.2 -3.4 -3.4z"/>
  <path d="M437.9 301.4 c0.8 -1 3.5 -4 6 -6.6 l4.5 -4.8 -5.2 0 c-5 0 -5.2 -0.1 -5.2 -2.8 0 -3.8 1.7 -5.2 6.5 -5.2 4.3 0 4.5 -0.3 9.5 -10.7 2.7 -5.5 1.9 -12.3 -1.4 -12.3 -4.2 0 -6.6 -1.2 -6.6 -3.2 0 -1.8 0.5 -2 3.8 -1.5 5.3 0.9 10.2 6.4 10.2 11.5 0 4.5 -4.7 14.7 -8.4 18.1 -1.9 1.8 -2.3 3 -1.9 5.5 0.4 2.8 -0.1 3.7 -4 7.3 -2.4 2.2 -5.5 4.6 -6.8 5.4 -2.3 1.2 -2.3 1.1 -1 -0.7z"/>
  <path d="M378.6 285.9 c-0.9 -4.7 -0.7 -7.9 0.4 -7.9 0.6 0 1.3 0.6 1.6 1.4 0.4 1 2.3 0.1 7.2 -3.2 13.6 -9.2 39.5 -20.3 51 -21.8 4.9 -0.6 5.2 -0.5 5.2 1.5 0 1.6 -0.6 2.1 -2.4 2.1 -7.3 0 -35.4 11.9 -49.3 20.9 -5.5 3.5 -6.3 4.5 -6.3 7.1 0 2.7 -0.3 3 -3.4 3 -3 0 -3.4 -0.4 -4 -3.1z"/>
  <path d="M85.6 283 c-3.9 -4.7 -7.6 -12.8 -7.6 -16.8 0 -6.7 5.4 -12.2 12 -12.2 3.4 0 2.6 3.7 -1 4.5 -1.6 0.4 -3.9 1.8 -5.1 3.3 -2.6 3.3 -2 6.8 2.2 13.6 2 3.3 2.9 5.9 2.7 8 l-0.3 3 -2.9 -3.4z"/>
  <path d="M429.1 283.3 c1 -1.1 1 -1.4 0.2 -0.9 -0.9 0.5 -1.3 -0.1 -1.3 -1.8 0 -2.3 0.4 -2.6 3.5 -2.6 3.3 0 3.5 0.2 3.5 3.5 0 3.4 -0.1 3.5 -3.6 3.5 -3.3 0 -3.5 -0.2 -2.3 -1.7z"/>
  <path d="M372.2 270 c-3.5 -6.7 -4.1 -11.8 -1.6 -15.5 1.5 -2.4 1.5 -2.6 -2.5 -6.7 -2.2 -2.4 -4.1 -4.9 -4.1 -5.5 0 -0.7 -0.6 -1.3 -1.3 -1.3 -0.7 0 -5.4 -4.2 -10.5 -9.3 -7.3 -7.3 -9.2 -9.8 -9.2 -12.1 0 -2.5 0.2 -2.7 1.6 -1.5 1.5 1.2 2 0.9 4.3 -2.1 13.7 -18 27.3 -29.1 48.8 -39.9 9.7 -4.9 16.8 -7 25.9 -7.8 12.9 -1.1 25.5 5.2 30.3 15 3.1 6.3 2.7 11.2 -1.5 19.6 -5.7 11.5 -20.4 26 -52.9 52.1 -15.8 12.9 -21.4 18.1 -20.8 19.8 0.3 0.7 -0.3 1.2 -1.5 1.2 -1.3 0 -2.9 -1.8 -5 -6z m0.8 -23.3 c0 -0.2 -1.7 -1.9 -3.7 -3.8 l-3.8 -3.4 3.4 3.8 c3.3 3.4 4.1 4.2 4.1 3.4z"/>
  <path d="M207.7 225.9 c1.5 -1.5 -1.4 -9.8 -8 -22.9 -9.5 -18.8 -11.5 -21 -18.9 -21 -8.6 0 -25.3 -7 -21.5 -9.1 3.1 -1.8 13.1 -2.1 17.9 -0.6 l4.8 1.5 -7.9 -9.7 c-4.4 -5.3 -12.7 -14.3 -18.5 -20 -10.1 -9.9 -10.7 -10.3 -12.1 -8.5 -1.3 1.8 -1.4 1.7 -1.5 -1.3 0 -2.4 0.4 -3.3 1.7 -3.3 1.9 0 26.6 24.7 33.7 33.8 2.7 3.4 5 6.1 5.2 6 0.1 -0.2 -0.7 -3 -1.8 -6.3 -2.3 -6.8 -3.5 -20.8 -2 -24.5 l0.9 -2.5 3.3 3.5 c5.3 5.7 7.4 11.4 7.3 20 0 4.2 -0.8 9.4 -1.7 11.8 l-1.5 4.3 4.4 7 c5.9 9.1 11.7 20.4 15.9 30.6 2.5 6.2 3.6 7.9 4.4 7.1 0.9 -0.9 1.2 -0.8 1.2 0.4 0 3.2 -1.3 4.8 -3.8 4.8 -1.9 0 -2.3 -0.3 -1.5 -1.1z"/>
  <path d="M330 209.6 c0 -1.8 0.4 -2.3 1.8 -2 1.3 0.4 2.4 -1 4.7 -5.8 1.6 -3.4 5.5 -10.3 8.7 -15.4 l5.8 -9.2 -1.6 -4.3 c-0.9 -2.5 -1.7 -7.7 -1.7 -11.9 -0.1 -8.6 2 -14.3 7.3 -20 3.1 -3.3 3.3 -3.4 4.1 -1.5 1.6 4.1 0.9 15.2 -1.5 23.4 -1.3 4.5 -2.2 8 -2.1 7.9 8.8 -11.3 25.5 -28.8 27.3 -28.8 0.9 0 -1.9 3.5 -6.4 8.3 -4.4 4.5 -10.8 11.6 -14.2 15.8 l-6.2 7.7 4.8 -1.5 c4.8 -1.5 14.8 -1.2 17.9 0.5 4 2.3 -13.5 9.2 -23 9.2 -5.3 0 -8.6 3.7 -15.2 16.6 -2.7 5.5 -5.4 10.1 -5.8 10.3 -0.4 0.1 0 0.9 1 1.7 1.6 1.2 1.4 1.3 -1.9 1.4 -3.4 0 -3.8 -0.3 -3.8 -2.4z"/>
  <path d="M388.5 135.5 c6 -5.3 7.5 -5.6 7.5 -1.4 0 2.6 -0.2 2.9 -1.4 2 -1.6 -1.4 -4.3 -0.4 -6.6 2.3 -0.7 0.9 -2 1.6 -2.9 1.6 -1 -0.1 0.3 -1.7 3.4 -4.5z"/>
 </g>
 <g fill="#cae6ef">
  <path d="M328 400.5 c0 -4.1 2.4 -4.9 3.4 -1 0.4 1.4 1.3 2.5 2.1 2.5 0.8 0 1.5 0.5 1.5 1 0 0.6 -1.6 1 -3.5 1 -3.3 0 -3.5 -0.2 -3.5 -3.5z"/>
  <path d="M191.7 396.6 c1.4 -3.7 1.5 -4.9 0.5 -7.1 -1 -2.1 -1.8 -2.6 -3.5 -2.2 -1.2 0.3 -9.8 2.3 -19.2 4.5 -19.6 4.7 -21.9 5.1 -22.2 3.7 0 -0.5 4.7 -2 10.6 -3.1 17.1 -3.5 31.1 -7.5 30.4 -8.8 -0.4 -0.6 -1.8 -2.6 -3.1 -4.3 -2.6 -3.6 -2.1 -4.4 1.1 -1.5 1.9 1.7 2 1.6 1.3 -2.2 -0.4 -2.2 -2.1 -7.9 -3.7 -12.7 -3.1 -9.3 -3.5 -11.4 -1.9 -10.4 1.2 0.7 7.4 20.2 8.5 26.4 0.4 2.4 1.5 5.7 2.5 7.3 l1.7 2.9 11.9 -29.3 c6.4 -16.1 11.7 -30.2 11.7 -31.3 0 -1.1 -1.7 -6.4 -3.8 -11.7 -2.7 -6.9 -4.1 -9.5 -5.1 -9.1 -0.8 0.3 -1.4 -0.1 -1.4 -1.1 0 -1.2 1 -1.6 3.8 -1.6 2.3 0 3.2 0.3 2.4 0.8 -1 0.7 -0.6 2.5 1.6 8.3 1.6 4.1 3.2 8.3 3.6 9.4 0.7 1.8 0.9 1.7 2.1 -1.2 0.8 -1.8 1.9 -3.3 2.5 -3.3 1.6 0 1.2 5.9 -0.5 7.6 -0.8 0.9 -1.8 3.3 -2.1 5.5 -0.4 2.1 -1 3.9 -1.5 3.9 -0.5 0 -0.9 1.1 -0.9 2.5 0 1.4 -0.4 2.5 -1 2.5 -0.5 0 -1 1.1 -1 2.5 0 1.4 -0.4 2.5 -1 2.5 -0.5 0 -1 1.1 -1 2.5 0 1.4 -0.4 2.5 -1 2.5 -0.5 0 -1 1.1 -1 2.5 0 1.4 -0.4 2.5 -1 2.5 -0.5 0 -1 1.1 -1 2.5 0 1.4 -0.4 2.5 -1 2.5 -0.5 0 -1 1.1 -1 2.5 0 1.4 -0.4 2.5 -1 2.5 -0.5 0 -1 1.1 -1 2.5 0 1.4 -0.4 2.5 -1 2.5 -0.5 0 -1 1.1 -1 2.5 0 1.4 -0.4 2.5 -1 2.5 -0.5 0 -1 1.1 -1 2.5 0 1.4 -0.4 2.5 -1 2.5 -0.5 0 -1 1.1 -1 2.5 0 1.4 -0.4 2.5 -1 2.5 -0.5 0 -1 0.8 -1 1.7 0 2.4 -2.3 8.3 -3.2 8.3 -0.4 0 -0.8 1.1 -0.8 2.5 0 2 -0.5 2.5 -2.5 2.5 l-2.4 0 1.6 -4.4z"/>
  <path d="M341 395.7 c0 -0.8 1.3 -4 2.9 -7.3 1.7 -3.2 3.3 -7.6 3.7 -9.8 0.8 -5.3 7.2 -24.8 8.4 -26 1.8 -1.8 1.1 1.6 -2.5 12.3 -3.4 10.1 -4.1 13.1 -3 13.1 0.3 0 2.7 -2.1 5.3 -4.6 5.9 -5.7 10.7 -8.9 16.1 -10.5 4.1 -1.2 4.5 -1.7 9.2 -11.1 2.7 -5.4 5.4 -9.8 5.9 -9.8 0.6 0 -1.2 4.5 -4 10 l-5 10 3.4 0 c1.8 0 4.9 0.3 6.7 0.7 l3.4 0.7 -3.5 0.6 -3.5 0.5 5.8 3.6 c3.2 2 10.9 6.1 17.2 9 10.7 5 13.5 6.9 10.1 6.9 -2.4 0 -27 -12.6 -32 -16.5 -4.5 -3.4 -5.3 -3.7 -9.4 -3.1 -6.6 0.9 -12.9 4.4 -19.3 10.8 -9.6 9.5 -9.7 9.1 3.9 12.6 6.4 1.7 15.5 3.8 20.2 4.7 10.7 2.1 11.6 2.3 10.4 3.5 -0.9 0.9 -31.7 -5.5 -40 -8.4 l-4.2 -1.4 -2.3 5 c-2.4 5.2 -3.9 6.9 -3.9 4.5z"/>
  <path d="M325 383.5 c0 -4 2.4 -4.9 3.4 -1.2 1 3.7 0.7 4.7 -1.4 4.7 -1.6 0 -2 -0.7 -2 -3.5z"/>
  <path d="M119 383.2 c0 -0.5 4.3 -2.8 9.5 -5.1 5.2 -2.4 12.9 -6.4 17.2 -8.9 l7.8 -4.6 -3.5 -0.6 -3.5 -0.6 3.4 -0.7 c1.8 -0.4 4.9 -0.7 6.7 -0.7 l3.4 0 -4.5 -9.1 c-2.6 -5 -4.4 -9.6 -4.2 -10.2 0.2 -0.7 2.7 3.3 5.5 8.9 4.8 9.6 5.2 10.1 9.3 11.3 4.6 1.4 11.2 5.5 14.3 9 3 3.3 1.4 3.4 -2.5 0.2 -5.2 -4.3 -11.4 -7.3 -16.3 -7.8 -3.8 -0.5 -4.9 -0.1 -9.2 3.3 -4.7 3.5 -29.9 16.4 -32.3 16.4 -0.6 0 -1.1 -0.4 -1.1 -0.8z"/>
  <path d="M269.6 369.8 c-1 -3.8 -0.7 -4.8 1.4 -4.8 1.6 0 2 0.7 2 3.5 0 4 -2.4 4.9 -3.4 1.3z"/>
  <path d="M322 365.5 c0 -4.9 2.3 -6.4 3.4 -2.2 1.2 4.4 0.7 6.7 -1.4 6.7 -1.7 0 -2 -0.7 -2 -4.5z"/>
  <path d="M260 365.6 c0 -2.9 0.4 -3.6 2 -3.6 1.6 0 2 -0.7 2 -3 0 -2.8 0.3 -3 3.5 -3 3.3 0 3.5 0.2 3.5 3.5 0 4 -2.4 4.9 -3.3 1.3 -0.8 -2.8 -1.7 -1.8 -3.7 3.4 -2 5.4 -4 6.1 -4 1.4z"/>
  <path d="M90 365.7 c0 -0.7 3.3 -2 8.2 -3.1 8.2 -1.8 14.8 -4.4 14.8 -5.7 0 -0.4 -1.6 -1.7 -3.5 -2.9 -1.9 -1.1 -5.4 -4.4 -7.9 -7.1 l-4.5 -5 -11.8 -0.4 c-6.5 -0.1 -12.8 -0.6 -14 -1 -3.5 -1.1 -2.8 -2.8 1 -2.1 1.7 0.3 7.7 0.9 13.1 1.2 11.5 0.8 11.2 1.5 4.2 -9.3 -4.5 -6.9 -4.6 -7.1 -10.8 -8.6 -3.5 -0.9 -8.7 -1.9 -11.6 -2.3 -2.8 -0.3 -5.2 -1 -5.2 -1.5 0 -1.3 5.5 -1 13 0.6 3.6 0.7 6.7 1.2 6.9 1 0.8 -0.9 -10.3 -13.7 -14.5 -16.7 -4 -2.8 -5.5 -4.8 -3.8 -4.8 1.8 0 7.8 4.6 11.4 8.7 l4 4.6 0 -5.2 c0 -2.8 0.5 -5.1 1 -5.1 0.6 0 1 1.7 1 3.8 0.1 7 1.8 11.1 9.5 23.1 9.3 14.5 10.6 15.8 9.4 9.8 -0.4 -2.4 -1.7 -6.8 -2.8 -9.8 -2.6 -6.6 -2.8 -9 -0.7 -6.9 1.8 1.9 5.3 13.3 6.2 20 0.6 4.3 1.3 5.6 4.8 8.6 4.2 3.6 17.9 10.8 19.5 10.2 0.5 -0.2 -0.9 -3.9 -3 -8.2 -2.2 -4.4 -3.9 -8.1 -3.9 -8.3 0 -0.1 1.5 -0.3 3.4 -0.3 2.2 0 3.6 0.6 4 1.6 0.9 2.2 0.8 2.3 -1.4 1.7 -2.6 -0.7 -2.6 -0.4 1.5 7.6 l3.4 6.9 5.6 0.7 c3 0.4 5.5 1.2 5.5 1.8 0 1.6 -10.8 0.2 -18.6 -2.5 -6.2 -2.2 -7.4 -2.3 -9.5 -1.2 -2.8 1.6 -15.9 5.8 -20.6 6.7 -2.3 0.5 -3.3 0.3 -3.3 -0.6z"/>
  <path d="M437.9 364.6 c-4.8 -1.2 -10.2 -3.2 -12.2 -4.4 l-3.6 -2 -7.3 2.5 c-7.9 2.8 -18.8 4.2 -18.8 2.6 0 -0.6 2.5 -1.4 5.5 -1.8 l5.6 -0.7 5.9 -11.9 c3.3 -6.5 6.4 -11.9 7 -11.9 0.9 0 -1.9 6.8 -7 17 -1.8 3.5 -2.5 6 -1.9 6 2.4 0 15.5 -7 19.3 -10.2 3.5 -3.1 4.1 -4.2 5.6 -11.9 1.8 -8.8 5.9 -19.3 6.7 -17.2 0.2 0.6 -0.8 4.5 -2.2 8.6 -1.5 4.1 -2.5 8.5 -2.3 9.8 0.3 2 1.7 0.3 8 -9.3 10 -15.2 9.8 -14.8 10.5 -22.3 0.7 -7.7 2.3 -8.7 2.3 -1.5 l0 5.1 3.3 -3.7 c3.3 -3.9 10.3 -9.4 11.9 -9.4 1.9 0 0.6 1.9 -3 4.2 -3.6 2.4 -15.9 16.4 -15.1 17.3 0.2 0.2 3.3 -0.3 6.9 -1 7.5 -1.6 13 -1.9 13 -0.6 0 0.5 -2.4 1.2 -5.2 1.5 -2.9 0.4 -8.2 1.4 -11.7 2.3 -6.2 1.6 -6.4 1.7 -10.8 8.6 -6.9 10.8 -7.2 10.1 4.3 9.3 5.4 -0.3 11.4 -0.9 13.2 -1.2 3.7 -0.7 4.4 1 1 2.1 -1.3 0.4 -7.6 0.9 -14.1 1 l-11.8 0.4 -4.5 5 c-2.5 2.7 -6 6 -7.9 7.1 -1.9 1.2 -3.5 2.5 -3.5 3 0 1.1 6.8 3.7 15.5 5.9 3.8 0.9 7 2.2 7.3 2.9 0.5 1.5 0.5 1.5 -9.9 -1.2z"/>
  <path d="M320 355.5 c0 -4 2.4 -4.9 3.4 -1.2 1 3.7 0.7 4.7 -1.4 4.7 -1.6 0 -2 -0.7 -2 -3.5z"/>
  <path d="M318 345.1 c0 -5.9 1.2 -9.1 3.3 -9.1 1.7 0 1.9 0.5 1.3 3.1 -0.3 1.7 -0.6 4.4 -0.6 6 0 2.2 -0.5 2.9 -2 2.9 -1.5 0 -2 -0.7 -2 -2.9z"/>
  <path d="M198 336.9 c0 -0.5 -2.1 -2 -4.7 -3.2 -4.5 -2.1 -6 -2.2 -26 -1.9 l-21.2 0.2 -6.3 -5.2 c-3.4 -2.9 -7 -5.7 -7.9 -6.3 -6.1 -3.7 -39.5 -30.4 -43.2 -34.5 -5.7 -6.3 -10.2 -15.2 -10.2 -20.2 0 -7.9 7.2 -12.5 17.8 -11.3 17.6 1.9 45.3 15.2 68.5 32.7 9.7 7.4 10.2 7.6 10.2 5.2 0 -2.1 0.3 -2.4 1.4 -1.5 0.7 0.6 1.6 2.4 1.9 4 0.7 3.3 5.9 9.7 8.7 10.6 1 0.3 2.5 1.7 3.4 3 1.5 2.3 1.5 2.3 -1.3 1.5 l-2.8 -0.8 4.8 9.2 c5.8 11 9.2 19.6 7.9 19.6 -0.6 0 -1 -0.5 -1 -1.1z m-15 -29.2 c0 -0.2 -1.5 -1.6 -3.2 -3.3 l-3.3 -2.9 2.9 3.3 c2.8 3 3.6 3.7 3.6 2.9z"/>
  <path d="M338 337.5 c0 -0.4 2.9 -6.7 6.4 -14 4.2 -8.7 7 -13.5 8.2 -13.8 1.7 -0.4 1.7 -0.5 -0.1 -0.6 -1.1 -0.1 -2.7 -0.6 -3.5 -1.2 -1.1 -0.8 1.1 -0.9 7.8 -0.5 10.5 0.7 12.6 0 17.9 -5.6 4.5 -4.7 5.3 -7.6 4.8 -17 -0.5 -7.8 -0.4 -8.1 0.9 -5.3 0.9 1.7 1.5 2.5 1.6 2 0 -1.5 17.1 -11.7 28.3 -16.9 29.9 -13.9 48.7 -13.5 49.1 1.1 0.1 4.5 -4.1 13.7 -8.3 18.2 -2 2.1 -2.5 3.3 -1.8 3.8 0.7 0.4 -0.5 1.1 -2.8 1.5 -7.3 1.3 -9.1 1 -10.3 -1.7 -1.5 -3.1 -3.9 -3.2 -5.3 -0.1 -0.9 1.8 -0.7 3.1 1 6.4 2.3 4.6 3 10.5 0.9 8.4 -1.3 -1.3 -0.6 -1.9 -24.6 17 l-16.3 12.8 -21.2 -0.2 c-18.5 -0.2 -21.7 0 -25.2 1.5 -2.1 1 -4.7 2.5 -5.7 3.4 -1 0.9 -1.8 1.3 -1.8 0.8z"/>
  <path d="M321 330.5 c0 -2.8 0.4 -3.5 2 -3.5 2.1 0 2.4 1 1.4 4.8 -1 3.6 -3.4 2.7 -3.4 -1.3z"/>
  <path d="M322 314.1 c0 -12.6 0.8 -14.2 6.8 -14 2 0.1 3 0.3 2.1 0.6 -2 0.5 -6.1 12.1 -5.3 15 0.9 3.4 -0.4 9.3 -2.1 9.3 -1.2 0 -1.5 -2 -1.5 -10.9z"/>
  <path d="M181.5 250.9 c1.2 -3.9 2.7 -4.8 2.3 -1.5 -0.2 1.6 -0.9 3.1 -1.7 3.4 -1 0.3 -1.1 -0.2 -0.6 -1.9z"/>
  <path d="M177.9 247.8 c-10.1 -14.5 -30.3 -34.5 -43.5 -43 -4.5 -2.9 -8.3 -5.9 -8.3 -6.6 -0.2 -3.9 21.4 12.3 33.9 25.4 10.5 11.1 21 24 21 26 0 2.1 -0.6 1.7 -3.1 -1.8z"/>
  <path d="M362.6 241.4 c-0.3 -0.9 -0.6 -2.5 -0.6 -3.6 0 -1.7 0.3 -1.8 1.4 -0.9 1.2 1 2.1 0.5 4.8 -2.6 13.7 -15.6 29.2 -29.5 38.9 -34.8 8.3 -4.5 5.6 -0.5 -3.7 5.5 -9.4 6 -23.5 18.7 -32 28.7 -4.4 5.2 -5.2 6.8 -4.3 7.9 0.9 1.1 0.7 1.4 -1.4 1.4 -1.4 0 -2.8 -0.7 -3.1 -1.6z"/>
  <path d="M208.5 225 c1.5 -2.5 -13.6 -34.1 -19.9 -41.7 -1.3 -1.5 -3.6 -4.8 -5.1 -7.3 -4.6 -7.3 -16.2 -20.8 -27.4 -31.7 -10.1 -9.9 -12.1 -11.5 -12.1 -9.3 0 0.6 -0.4 1 -1 1 -0.5 0 -1 -1.6 -1 -3.5 0 -2.4 0.5 -3.5 1.5 -3.5 0.8 0 1.5 0.4 1.5 1 0 0.5 5.5 6.5 12.3 13.3 10.4 10.5 29.7 32.7 29.7 34.2 0 0.2 2.2 3.8 4.9 7.9 5.4 8.3 13.3 23.8 16.2 31.9 1 2.9 2.3 5.1 2.9 5 0.5 -0.2 1 0.6 1 1.7 0 1.4 -0.7 2 -2.1 2 -1.1 0 -1.7 -0.4 -1.4 -1z"/>
  <path d="M332 209.4 c0 -1.4 0.3 -1.5 1.8 -0.3 0.9 0.7 1.9 1.5 2.1 1.6 0.2 0.2 -0.5 0.3 -1.7 0.3 -1.4 0 -2.2 -0.6 -2.2 -1.6z"/>
  <path d="M334.5 207 c1 -3.4 6.7 -13.9 12.8 -23.5 5.9 -9.2 20.7 -27.9 21.4 -27.1 0.3 0.3 -2.6 4.5 -6.4 9.3 -9.1 11.5 -18.1 24.8 -23.3 34.8 -4.6 8.8 -5.6 10.3 -4.5 6.5z"/>
  <path d="M370 155 c0 -0.6 5.2 -6.3 11.5 -12.6 6.4 -6.3 11.3 -11.9 11 -12.4 -0.3 -0.6 0.3 -1 1.4 -1 1.7 0 2.1 0.6 2.1 3.5 0 3.5 -0.8 4.3 -2.6 2.5 -0.7 -0.7 -4.8 2.7 -12.2 10.1 -6.2 6 -11.2 10.5 -11.2 9.9z"/>
 </g>
 <g fill="#ffc1c0">
  <path d="M119.8 344.9 c-5.7 -6 -6.3 -9.6 -2.1 -12.9 1.7 -1.3 3.7 -2 5.1 -1.7 1.5 0.3 2.6 -0.2 3.3 -1.4 1.6 -3.1 2.9 -2.1 2.9 2.2 l0 4.2 -5.1 -0.6 c-4.7 -0.6 -5 -0.5 -4.7 1.5 0.4 2.7 4.4 5.5 9.1 6.4 3.3 0.6 3.7 0.4 3.7 -1.5 0 -1.4 0.6 -2.1 2 -2.1 2.1 0 2.5 1.6 1.3 5.9 -0.6 2.2 -0.9 2.3 -6.5 1.7 -5.6 -0.6 -5.8 -0.5 -4.8 1.4 1.5 2.9 1.1 2.5 -4.2 -3.1z"/>
  <path d="M131.3 330.3 c-1.8 -3.8 -1.6 -5.3 0.7 -5.3 2.1 0 4 2.7 4 5.9 0 3.1 -3.3 2.6 -4.7 -0.6z"/>
  <path d="M187.6 309.6 c-14.2 -5.3 -16.6 -21 -5.9 -40.6 3 -5.5 3.3 -6.7 2.3 -8.4 -1 -1.6 -0.8 -2.8 1.6 -7.3 2.8 -5.1 3.1 -5.3 7 -5.3 4.3 0 12.5 2.4 16.2 4.8 2 1.3 3.1 1.1 13.7 -3.3 l11.5 -4.8 0 -8.7 c0 -4.8 0.3 -9 0.8 -9.4 0.4 -0.4 1.2 -2.9 1.7 -5.4 l1 -4.7 5.2 -0.3 c4.2 -0.2 6.6 0.4 12.7 3.2 l7.5 3.4 0.3 -4.6 0.3 -4.7 5.4 -0.3 c4.4 -0.3 5.8 0.1 7.7 1.9 l2.4 2.2 2.3 -2.1 c1.8 -1.7 3.6 -2.2 7.5 -2.2 5.6 0 5.7 0.2 6.4 7.3 l0.3 2.9 6.8 -3.6 c5.3 -2.8 7.9 -3.6 12 -3.6 l5.2 0 2.3 7.3 c1.6 5.2 2.1 9.2 2 14.2 l-0.3 7 11.4 5 11.3 5 6.7 -3.2 c8.3 -4.1 15 -4.5 17.4 -1 1.3 1.8 1.6 1.9 1.6 0.5 0.1 -1.2 0.9 -1.8 2.2 -1.8 1.9 0 2.1 0.4 1.5 3.1 -0.3 1.7 -1.5 4.2 -2.5 5.5 l-1.9 2.5 4.3 8.2 c4.6 8.7 7.5 17.8 7.5 23.7 -0.1 5.3 -3.3 11.5 -7.9 14.8 -7.8 5.6 -16.5 5.1 -33.8 -1.9 -10.7 -4.3 -11.8 -4.6 -12.6 -2.5 -0.5 1.2 -3.6 0.1 -14.5 -5 -7.6 -3.5 -18.8 -9.1 -24.8 -12.3 l-10.9 -5.8 -4 2.4 c-2.2 1.3 -9.8 5.3 -16.9 8.9 -7.1 3.5 -12.3 6.4 -11.7 6.4 0.6 0 1.1 1.6 1.1 3.5 0 3.4 -0.1 3.5 -4 3.5 -3.3 0 -4 -0.3 -4 -2 0 -2.4 -0.8 -2.5 -3.5 -0.6 -3.8 2.6 -6.3 2.9 -6.7 0.8 -0.3 -1.9 -0.7 -1.8 -8.1 1.1 -6.4 2.5 -7.7 3.4 -7.4 4.9 0.6 2.1 -0.8 2.4 -1.7 0.3 -0.4 -1.3 -1 -1.3 -4.8 0.1 -6.4 2.2 -14.7 2.7 -19.2 1z"/>
  <path d="M304 304.5 c0 -3.4 0.1 -3.5 4 -3.5 3.9 0 4 0.1 4 3.5 0 3.4 -0.1 3.5 -4 3.5 -3.9 0 -4 -0.1 -4 -3.5z"/>
  <path d="M287 303.5 c0 -3.5 0 -3.5 4.5 -3.5 4.5 0 4.5 0 4.5 3.5 0 3.5 0 3.5 -4.5 3.5 -4.5 0 -4.5 0 -4.5 -3.5z"/>
  <path d="M255 301.5 c0 -3.5 0 -3.5 4.5 -3.5 4.5 0 4.5 0 4.5 3.5 0 3.5 0 3.5 -4.5 3.5 -4.5 0 -4.5 0 -4.5 -3.5z"/>
  <path d="M431.7 300.8 c-3.8 -5.1 -4.7 -7.4 -4.7 -11.7 0 -3.1 0.6 -4.4 2.6 -6 3.6 -2.8 5 -2.6 8.5 0.9 2.3 2.3 3.5 2.8 4.8 2.1 2.4 -1.4 6.5 0.9 6.9 3.8 0.2 1.5 -0.6 3.4 -2.5 5.3 -2.8 3 -11 8.8 -12.4 8.8 -0.5 0 -1.9 -1.5 -3.2 -3.2z m7.7 -4.3 c0.3 -0.8 1.7 -1.5 3.1 -1.5 1.9 0 2.5 -0.5 2.5 -2.3 0 -2 -0.4 -2.2 -4 -1.9 -3.8 0.4 -4 0.3 -4.6 -2.7 -0.5 -2.3 -1.1 -3 -2.1 -2.7 -0.8 0.4 -1.9 0.6 -2.4 0.6 -1.6 0 -0.9 5.2 1.2 8.6 2.2 3.5 5.3 4.5 6.3 1.9z"/>
  <path d="M231.1 204.7 c5.6 -5.2 12.1 -8.5 18.3 -9.3 4.2 -0.6 4.6 -0.5 4.6 1.5 0 1.5 -0.6 2.1 -2.2 2.1 -3.1 0 -11.6 4.1 -15.4 7.3 -2.1 1.8 -4.3 2.7 -6.5 2.7 l-3.4 -0.1 4.6 -4.2z"/>
  <path d="M315.1 204.9 c-3 -1.6 -6.5 -2.9 -7.8 -2.9 -1.6 0 -2.3 -0.6 -2.3 -2 0 -1.6 0.7 -2 3.4 -2 3.7 0 17.7 6.6 18.4 8.8 0.7 2.2 -6 1.1 -11.7 -1.9z"/>
  <path d="M272.9 205.3 c-1.8 -2.1 -10.8 -6.3 -13.6 -6.3 -1.6 0 -2.3 -0.6 -2.3 -2 0 -1.6 0.7 -2 3 -2 2.8 0 3 -0.3 3 -3.5 0 -3 -0.5 -3.7 -4 -5.5 -9.2 -4.7 -14.8 -14.2 -15.7 -27.1 -0.6 -7.1 1.3 -15 4.8 -20 1.8 -2.5 1.7 -2.7 -0.2 -6.7 -3.5 -6.9 -0.3 -12.9 9.1 -17.1 6 -2.7 10 -2.8 10 -0.1 0 1.1 -0.7 2 -1.5 2 -2.4 0 -9.5 2.4 -9.5 3.2 0 0.5 -0.8 0.8 -1.9 0.8 -1.3 0 -2 0.9 -2.5 3 -0.3 1.7 -0.7 3.3 -0.8 3.7 -0.2 0.4 1.6 0.6 3.8 0.5 3 -0.3 4.3 0.1 4.7 1.2 0.4 1.1 1.9 1.6 4.5 1.6 2.5 0 6.3 1.3 10.6 3.5 3.7 1.9 8.2 3.5 10 3.5 4.4 0 9.6 5.3 9.6 9.8 l0 3.2 5.6 0 c3 0 6.3 0.4 7.3 1 1.6 0.8 1.9 0.3 2.5 -4.4 0.7 -6.4 -0.1 -11.3 -2 -12 -0.8 -0.3 -1.4 -1.7 -1.4 -3.1 0 -2 -0.5 -2.5 -2.5 -2.5 -1.4 0 -2.8 -0.7 -3.1 -1.5 -0.4 -0.8 -1.2 -1.5 -2 -1.5 -0.8 0 -1.4 -0.4 -1.4 -0.8 0 -0.4 -1.6 -1.4 -3.5 -2.1 -1.9 -0.7 -3.5 -1.6 -3.5 -2.1 0 -0.4 -1.2 -1 -2.7 -1.3 -12.1 -2.5 -17.3 -4.3 -17.3 -5.9 0 -2.2 1.6 -2.2 9.9 -0.2 16.2 4 30.7 14.2 33.1 23.3 1.4 5.3 0.7 9.5 -2.5 15.9 -1.5 3 -2.1 5.7 -1.8 7.4 0.9 4.7 -1.4 9.4 -6.4 12.7 -2.5 1.7 -6.2 3.5 -8.2 4.2 -5.7 1.8 -6.1 2.5 -6.1 10 0 6.6 0.1 7 2.8 8 1.5 0.7 4.8 1.4 7.5 1.7 3.7 0.4 4.7 0.8 4.7 2.3 0 1.5 -0.7 1.9 -3.4 1.9 -1.9 0 -6.7 1.1 -10.8 2.5 -8.6 2.9 -14 3.2 -15.9 0.8z"/>
  <path d="M117 144.1 c0 -1.5 -1.6 -2.3 -9 -4.1 -5.9 -1.5 -9 -2.7 -9 -3.6 0 -0.8 1 -1.4 2.4 -1.4 4.2 0 18.9 3.9 19.7 5.1 0.6 1 3 0.4 9.7 -2.1 8.4 -3.1 9.1 -3.6 10.2 -6.9 0.6 -2.1 1 -7.7 0.8 -13.1 l-0.3 -9.5 -4.2 -0.3 c-3.7 -0.3 -4.4 -0.7 -5 -3 -0.3 -1.5 -1.2 -3.3 -2 -4 -0.7 -0.7 -1.3 -1.9 -1.3 -2.7 0 -0.7 -0.7 -1.5 -1.5 -1.9 -1 -0.3 -1.5 -1.9 -1.5 -4.2 l0 -3.7 2.4 2.2 c1.3 1.2 3.6 4.5 5.1 7.4 1.6 2.9 2.9 5.4 3.1 5.5 0.1 0.2 1.7 -0.4 3.4 -1.4 2.6 -1.6 3.2 -1.7 4 -0.5 1.3 2.2 2.3 17.5 1.6 24.6 -0.5 5.1 -0.3 6.4 0.9 6.9 0.8 0.3 1.5 1.1 1.5 1.7 0 0.8 -0.5 0.8 -1.5 -0.1 -1.3 -1.1 -1.8 -1 -3.1 0.8 -1.9 2.8 -5.3 4.5 -14.9 7.7 -9.4 3 -11.5 3.1 -11.5 0.6z"/>
  <path d="M413.5 145 c-1.1 -0.4 -5.2 -2 -9.1 -3.4 -3.9 -1.5 -8.1 -3.8 -9.4 -5.1 -1.8 -1.9 -2.6 -2.2 -3.7 -1.4 -0.9 0.9 -1.3 0.8 -1.3 0 0 -0.6 0.6 -1.4 1.3 -1.6 0.9 -0.4 1.2 -4.4 1.3 -14.8 0 -7.8 0.5 -15.3 1.1 -16.5 l0.9 -2.4 3 2.5 3 2.5 2.9 -5.4 c1.7 -3.1 4 -6.5 5.2 -7.6 l2.3 -2.1 0 3.4 c0 2 -0.8 4.4 -1.8 5.5 -1 1 -2.4 3.4 -3.1 5.2 -1.1 2.7 -1.8 3.2 -4.7 3.2 -2 0 -3.4 -0.5 -3.5 -1.2 -0.1 -0.7 -0.5 -0.2 -0.9 1.2 -1 3 -1.2 19.1 -0.4 24.3 0.4 2 1.1 3.7 1.7 3.7 0.5 0 4.8 1.4 9.4 3.2 7 2.6 8.6 3 9.3 1.8 0.9 -1.4 8.1 -3.3 17.3 -4.6 3.8 -0.6 4.7 -0.4 4.7 0.8 0 1.4 -4.3 2.9 -15.2 5.4 -1.9 0.4 -2.8 1.3 -2.8 2.5 0 1.4 -0.7 1.9 -2.7 1.8 -1.6 0 -3.7 -0.4 -4.8 -0.9z"/>
  <path d="M92.1 135.1 c-6.4 -2.3 -6.8 -4.5 -0.7 -3.9 5.4 0.6 5.9 0.9 5.4 3.6 -0.3 1.9 -0.4 1.9 -4.7 0.3z"/>
  <path d="M441 134.6 c0 -2.5 2.1 -3.6 7.3 -3.6 4.2 0 2.8 2.2 -2.6 4.2 l-4.7 1.8 0 -2.4z"/>
  <path d="M78.7 123.3 c1 -2.9 5.5 -7.3 7.5 -7.3 1.1 0 1.8 0.7 1.8 2 0 1.5 -0.7 2 -2.5 2 -2 0 -2.5 0.5 -2.5 2.5 0 2 -0.5 2.5 -2.5 2.5 -1.9 0 -2.3 -0.4 -1.8 -1.7z"/>
  <path d="M450 118 c0 -1.3 0.7 -2 1.8 -2 1.1 0 2.7 0.9 3.7 2 1.8 2 1.7 2 -1.8 2 -3 0 -3.7 -0.4 -3.7 -2z"/>
  <path d="M84.4 109.5 c-1.9 -4.6 -1.8 -6.5 0.5 -6.5 2 0 3.1 2.5 3.1 7.3 0 3.8 -1.8 3.4 -3.6 -0.8z"/>
  <path d="M187.2 111.1 c-6.5 -2.2 -10 -5.4 -10.8 -9.8 -1.1 -5.7 4.9 -10.3 9.5 -7.4 1 0.7 2.4 0.2 4.4 -1.5 1.6 -1.3 3.3 -2.4 3.8 -2.4 1.4 0 4.9 3.8 4.9 5.3 0 2.4 -3.1 11.8 -4.9 14.7 l-1.7 2.8 -5.2 -1.7z m5.6 -9.3 c1.1 -2.9 1.8 -5.6 1.5 -6 -0.8 -1.4 -2.1 -0.8 -2.6 1.2 -0.4 1.5 -1.4 2 -4 2 -2 0 -3.9 -0.4 -4.2 -1 -1 -1.6 -3.5 -1.2 -3.5 0.6 0 2.3 6.4 8.4 8.8 8.4 1.6 0 2.5 -1.3 4 -5.2z"/>
  <path d="M451 106.5 c0 -2.8 0.4 -3.5 2 -3.5 2.2 0 2.6 2 1 5.1 -1.6 3 -3 2.3 -3 -1.6z"/>
  <path d="M356.4 105.8 c-0.3 -1.1 -0.6 -4.7 -0.7 -8 0 -4.4 0.5 -6.6 2 -8.6 4 -5.3 12.3 -3.4 12.3 2.9 0 2.3 0.5 2.8 2.7 3.1 1.8 0.2 3.3 1.3 4.3 3.1 1.4 2.7 1.4 2.9 -1.2 5.2 -1.7 1.5 -4.6 2.6 -7.5 3 -2.7 0.3 -6.2 0.7 -8 1 -2.6 0.3 -3.3 -0.1 -3.9 -1.7z m13.4 -3.9 c3.2 -1.2 2.7 -2.9 -0.8 -2.9 -2.7 0 -3 -0.3 -3 -3.4 0 -4.3 -2.1 -6.3 -4.2 -3.8 -2.3 2.6 -2.9 5.1 -2.2 8.8 0.6 3.1 0.8 3.2 4.2 2.7 2.1 -0.3 4.7 -1 6 -1.4z"/>
  <path d="M291.5 99.9 c-6.9 -5.1 -9.5 -12.7 -5.7 -16.2 1 -1 2.8 -1.7 4 -1.7 2.2 0 6.2 3.5 6.2 5.4 0 0.6 0.7 0 1.6 -1.2 2.2 -3.2 7.2 -3 8 0.3 0.3 1.4 0.3 3.5 0 4.8 -0.8 3.1 -7.4 11.7 -8.9 11.7 -0.6 0 -3 -1.4 -5.2 -3.1z m6.9 -5.4 l1.6 -2.5 -3.5 0 c-2.9 0 -3.6 -0.4 -4.1 -2.5 -0.6 -2.4 -2.3 -3.2 -3.7 -1.9 -0.4 0.4 0.3 2.4 1.5 4.5 1.8 3.3 3 4.2 5.9 4.8 0.4 0 1.4 -1 2.3 -2.4z"/>
  <path d="M433 91.5 c0 -2.4 0.5 -3.5 1.5 -3.5 0.8 0 1.5 0.7 1.5 1.5 0 1 1 1.5 2.8 1.5 4.2 0 7.2 1.1 7.2 2.6 0 1.1 -1.6 1.4 -6.5 1.4 l-6.5 0 0 -3.5z"/>
  <path d="M413 87.5 c1.5 -1.9 12.9 -9.5 14.1 -9.5 0.5 0 0.9 1.1 0.9 2.4 0 2.6 -1.6 3.6 -6.1 3.6 -2.4 0 -2.9 0.4 -2.9 2.5 0 2.2 -0.4 2.5 -3.6 2.5 -3.1 0 -3.5 -0.2 -2.4 -1.5z"/>
  <path d="M115 84.5 c0 -0.9 -0.9 -1.5 -2.5 -1.5 -2 0 -2.5 -0.5 -2.5 -2.5 0 -1.4 0.3 -2.5 0.6 -2.5 1.1 0 9.2 5.1 10.4 6.5 1.1 1.3 0.7 1.5 -2.4 1.5 -2.5 0 -3.6 -0.4 -3.6 -1.5z"/>
  <path d="M102 81.2 c0 -1.1 0.9 -2.7 2 -3.7 2 -1.8 2 -1.7 2 1.8 0 3 -0.4 3.7 -2 3.7 -1.3 0 -2 -0.7 -2 -1.8z"/>
  <path d="M230.2 63.4 c-2.9 -1.4 -6.6 -4.2 -8.2 -6.2 -6.1 -7.4 -2.8 -15.1 5.8 -14 2.8 0.4 4.4 0 6.1 -1.3 3.3 -2.7 9.2 -2.5 11.9 0.4 3.9 4.1 2.3 13.4 -3.5 19.8 -1.9 2.1 -4.3 3.9 -5.2 3.9 -0.9 0 -4 -1.2 -6.9 -2.6z m8.8 -3 c0 -0.9 0.8 -2.8 1.9 -4.2 2.5 -3.7 3.3 -6.6 2.5 -9.6 -0.8 -3.4 -4.6 -3.5 -7.2 -0.1 -2.2 2.7 -6.9 3.4 -9 1.3 -1.7 -1.7 -4.8 1.3 -3.6 3.4 2.3 3.9 6.3 7.6 9.9 9 5.1 2.1 5.5 2.1 5.5 0.2z"/>
  <path d="M309.3 62.1 c-5 -3.6 -7.1 -6.5 -7.9 -10.8 -1.6 -8.7 7.2 -14.5 13.1 -8.7 1.2 1.3 2.1 1.3 4.9 0.4 8.8 -2.9 13.7 5.6 7.6 13.2 -2.2 2.9 -10.7 8.8 -12.5 8.8 -0.7 0 -3 -1.3 -5.2 -2.9z m8.7 -3.7 c0.8 -0.3 3 -2.4 4.8 -4.6 4.3 -5.4 3.1 -7 -4.3 -6.2 -4.5 0.6 -5.6 0.3 -7.4 -1.5 -1.1 -1.1 -2.5 -2.1 -2.9 -2.1 -1.7 0 -3.2 4.9 -2.3 7.3 1.2 3 8 9 9.4 8.3 0.7 -0.4 1.9 -0.9 2.7 -1.2z"/>
 </g>
 <g fill="#b8d7e2">
  <path d="M78 403 c0 -0.5 1.4 -1 3 -1 1.7 0 3 0.5 3 1 0 0.6 -1.3 1 -3 1 -1.6 0 -3 -0.4 -3 -1z"/>
  <path d="M92 403 c0 -0.6 3.2 -1 7.5 -1 4.3 0 7.5 0.4 7.5 1 0 0.6 -3.2 1 -7.5 1 -4.3 0 -7.5 -0.4 -7.5 -1z"/>
  <path d="M248 401.3 c0 -5.2 1.1 -7.3 3.6 -7.3 2.3 0 2.3 0.1 0.9 4 l-1.4 4 2.9 0 c1.7 0 3 0.5 3 1 0 0.6 -2 1 -4.5 1 -4.2 0 -4.5 -0.2 -4.5 -2.7z"/>
  <path d="M273 403 c0 -0.5 1.1 -1 2.5 -1 2.4 0 3.5 -1.5 1.6 -2.2 -0.5 -0.1 -1.2 -2 -1.6 -4 -0.6 -3.4 -0.5 -3.8 1.3 -3.8 2 0 3.2 3.3 3.2 9.1 0 2.6 -0.3 2.9 -3.5 2.9 -1.9 0 -3.5 -0.4 -3.5 -1z"/>
  <path d="M430.5 402.9 c-2.6 -0.4 -0.6 -0.6 5.5 -0.6 9.4 -0.1 10.3 0.3 2.5 0.9 -2.2 0.2 -5.8 0 -8 -0.3z"/>
  <path d="M412.3 402.3 c1.5 -0.2 3.9 -0.2 5.5 0 1.5 0.2 0.2 0.4 -2.8 0.4 -3 0 -4.3 -0.2 -2.7 -0.4z"/>
  <path d="M326.6 394.4 c-0.9 -6.9 -0.8 -8.4 0.8 -8.4 1.4 0 1.8 1.1 3.2 9.3 0.5 3.2 0.4 3.7 -1.4 3.7 -1.5 0 -2.1 -0.9 -2.6 -4.6z"/>
  <path d="M147 395.7 c0.3 -0.3 7.7 -2.1 16.5 -4.1 19.6 -4.4 24.8 -5.9 25.3 -7.5 0.2 -0.6 -2.6 -4.2 -6.2 -8 -11.6 -12 -23.1 -15.4 -30.3 -9.1 -3.8 3.4 -31.4 17.3 -32.3 16.3 -0.3 -0.3 0 -0.8 0.7 -1 4.9 -1.8 29.2 -14.5 30.6 -16 1.7 -2 1.6 -2 -9.4 -2.7 -7.9 -0.5 -13.3 -1.4 -18.4 -3.1 l-7.2 -2.5 -5.4 2.5 c-5.5 2.5 -19.6 6.1 -20.5 5.2 -0.3 -0.2 2.8 -1.2 6.8 -2.2 8.1 -2 16.8 -5.3 16.8 -6.5 0 -0.5 -1.5 -1.8 -3.3 -2.9 -1.9 -1.1 -5.7 -4.6 -8.6 -7.6 -5.2 -5.5 -5.3 -5.5 -9.9 -4.9 -4.5 0.5 -20.9 -1 -22 -2.1 -1.2 -1.2 0.7 -1.3 4.8 -0.4 5.2 1.2 19.5 1.7 20.5 0.7 0.4 -0.3 -1.7 -4.1 -4.5 -8.3 -5.9 -8.7 -7.6 -9.7 -20 -11.9 -7.6 -1.3 -11.4 -2.6 -7.8 -2.6 1.8 0 15 2.6 18.7 3.6 2.2 0.7 2 0.1 -2.1 -5.2 -5 -6.4 -12.1 -13.5 -15.3 -15.2 -2 -1.1 -2 -1.1 0 -1.2 1.1 0 4.8 3 8.8 7 l6.9 7 -0.3 -3.2 c-0.4 -7 0.4 -8.9 1 -2.3 0.6 6.5 1.2 7.9 7.9 18.5 3.9 6.3 8.3 12.9 9.8 14.5 l2.5 3 -0.6 -4.4 c-0.5 -3.8 -1.7 -7.7 -4.9 -16.6 l-0.8 -2 1.7 2 c1.9 2.4 4.4 10.7 5.4 17.9 0.6 4.3 1.4 5.9 4.7 8.9 3.6 3.5 15 9.7 20.2 11.2 2.2 0.6 2.1 0.2 -1.9 -7.6 -2.3 -4.6 -4.9 -8.9 -5.8 -9.6 -1.4 -1.1 -1.1 -1.2 1.9 -1.3 3.4 0 6 1.4 6 3.2 0 0.5 -1.1 0.6 -2.4 0.2 -2.4 -0.6 -2.3 -0.4 1.7 7.3 2.2 4.3 4.5 8.1 5.1 8.5 0.6 0.4 7.3 0.8 14.8 0.8 l13.7 0 -4.4 -9.7 c-2.5 -5.3 -4.3 -9.8 -4.1 -10 0.2 -0.2 2.7 4.3 5.4 10.1 4.1 8.5 5.5 10.6 7.2 10.6 3.7 0 11.8 4.9 18.6 11.2 l6.7 6.3 -0.8 -3.5 c-0.4 -1.9 -2.2 -8.2 -4.1 -13.9 -1.9 -5.7 -3.3 -10.6 -3.1 -10.8 0.7 -0.6 5.6 13.8 7.8 22.7 1.1 4.7 2.8 10 3.7 11.8 l1.7 3.3 1.2 -2.8 c1.2 -2.7 1.2 -2.7 1.3 2 0 4.1 -0.3 4.7 -2.1 4.7 -1.1 0 -1.7 -0.4 -1.4 -1 0.7 -1.2 -2.2 -7 -3.6 -7 -0.6 0 -1.8 0.4 -2.7 0.9 -3.2 1.7 -41.3 10 -40.2 8.8z"/>
  <path d="M342.9 391.6 c1.1 -2.4 2.4 -5.2 3 -6.2 0.5 -1.1 2 -5.7 3.1 -10.4 2.2 -9 7 -23.3 7.7 -22.7 0.2 0.2 -1.2 5.1 -3.1 10.8 -1.9 5.7 -3.7 12 -4.1 13.9 l-0.7 3.4 6.8 -6.3 c7.1 -6.5 14.7 -11.1 18.4 -11.1 1.7 0 3.1 -2.1 7.1 -10.6 2.7 -5.9 5.2 -10.4 5.5 -10.2 0.2 0.3 -1.6 4.8 -4.1 9.9 l-4.6 9.4 12.8 0.3 c7 0.1 13.7 0.1 14.8 -0.2 1.4 -0.4 3.9 -4.3 8 -12.6 3.3 -6.6 6.1 -11.7 6.3 -11.1 0.2 0.5 -2.2 5.9 -5.3 12.1 -6.4 12.7 -6.5 12.6 6 6.5 9.4 -4.6 15.5 -10.5 15.5 -15 0 -4.2 4.6 -19.2 6.2 -20.1 0.8 -0.5 0.9 -0.1 0.4 1.2 -2.6 6.3 -4.6 12.7 -5.1 16.5 l-0.6 4.4 2.6 -3 c2.9 -3.4 11.8 -17.2 15.3 -23.7 1.6 -3 2.2 -5.9 2.2 -10.2 0 -3.3 0.3 -5.7 0.6 -5.4 0.3 0.4 0.5 3.1 0.5 6.1 l0 5.4 6.8 -6.8 c3.8 -4 7.5 -6.9 8.6 -6.9 2 0.1 2 0.1 0 1.2 -3.2 1.7 -10.3 8.8 -15.3 15.2 -4.1 5.3 -4.3 5.9 -2.1 5.2 3.7 -1 16.9 -3.6 18.7 -3.6 3.6 0 -0.2 1.3 -7.8 2.6 -12.4 2.2 -14.1 3.2 -20 11.9 -2.8 4.2 -4.9 8 -4.5 8.3 1 1 15.4 0.5 20.5 -0.6 4 -1 6 -0.9 4.9 0.2 -1 1.1 -17.9 2.7 -22.1 2.2 -4.6 -0.6 -4.7 -0.6 -9.9 4.9 -2.9 3 -6.7 6.5 -8.6 7.6 -1.8 1.1 -3.3 2.4 -3.3 2.8 0 1.3 6.1 3.7 15.3 6.1 4.8 1.3 8.5 2.5 8.3 2.8 -0.9 0.8 -15.1 -2.8 -20.5 -5.3 l-5.4 -2.5 -7.4 2.5 c-5.2 1.7 -10.8 2.7 -18.4 3.1 -10.8 0.7 -10.9 0.7 -9.2 2.7 1.4 1.5 25.7 14.2 30.6 16 0.7 0.2 0.9 0.7 0.6 1.1 -0.9 0.9 -28.4 -13 -32.2 -16.4 -7.2 -6.3 -18.7 -2.8 -30.3 9.1 -3.6 3.8 -6.4 7.4 -6.2 8.1 0.4 1.2 21.9 7 36.1 9.8 3.2 0.7 5.6 1.4 5.3 1.7 -0.7 0.8 -36 -7 -41.9 -9.3 -1.2 -0.4 -2.3 0.8 -4.2 4.5 -3.1 6.2 -4.1 6.7 -1.6 0.7z"/>
  <path d="M273.6 387.8 c-1 -3.8 -0.7 -4.8 1.4 -4.8 1.6 0 2 0.7 2 3.5 0 4 -2.4 4.9 -3.4 1.3z"/>
  <path d="M324 378.5 c0 -4 2.4 -4.9 3.4 -1.2 1 3.7 0.7 4.7 -1.4 4.7 -1.6 0 -2 -0.7 -2 -3.5z"/>
  <path d="M271.6 378.8 c-1 -3.8 -0.7 -4.8 1.4 -4.8 1.6 0 2 0.7 2 3.5 0 4 -2.4 4.9 -3.4 1.3z"/>
  <path d="M261 363.3 c0 -5.8 1 -7.3 4.6 -7.3 3.3 0 3.4 0.1 3.3 3.8 -0.1 2.3 -0.3 2.8 -0.6 1.5 -0.6 -3.3 -2.1 -2.8 -3.7 1.2 -1.8 4.2 -3.6 4.6 -3.6 0.8z"/>
  <path d="M321 361.5 c0 -4 2.4 -4.9 3.4 -1.2 1 3.7 0.7 4.7 -1.4 4.7 -1.6 0 -2 -0.7 -2 -3.5z"/>
  <path d="M319 350.5 c0 -4 2.4 -4.9 3.4 -1.2 1 3.7 0.7 4.7 -1.4 4.7 -1.6 0 -2 -0.7 -2 -3.5z"/>
  <path d="M320 334.5 c0 -2.8 0.4 -3.5 2 -3.5 2.1 0 2.4 1 1.4 4.8 -1 3.6 -3.4 2.7 -3.4 -1.3z"/>
  <path d="M168 321.4 c-11.2 -11.3 -30.1 -27.4 -43.5 -36.9 -9.9 -7 -12.5 -10.5 -3.3 -4.3 14.9 9.9 44.7 35.3 53.4 45.5 7.3 8.5 3.7 6.1 -6.6 -4.3z"/>
  <path d="M363.4 325.6 c11.5 -13.4 56.9 -50.6 59.1 -48.4 0.3 0.3 -2.9 3 -7.3 6.1 -14.3 10 -28.6 21.9 -41.8 34.9 -7.2 7 -13.4 12.8 -13.8 12.8 -0.4 0 1.3 -2.4 3.8 -5.4z"/>
  <path d="M219 328.3 c0 -1 -1.8 -6.2 -3.9 -11.5 -2.1 -5.4 -3.5 -9.8 -3.1 -9.8 0.4 0 2.2 3.9 4 8.8 1.9 4.8 3.5 8.9 3.7 9.1 0.2 0.3 1 -0.4 1.8 -1.5 1.3 -1.8 1.4 -1.6 1.5 2.4 0 3.5 -0.3 4.2 -2 4.2 -1.2 0 -2 -0.7 -2 -1.7z"/>
  <path d="M321.6 316.8 c-0.3 -3.5 -0.9 -8.2 -1.2 -10.4 l-0.6 -4.2 4.2 -0.7 c2.3 -0.4 4.3 -0.5 4.6 -0.2 0.2 0.2 -0.5 2.6 -1.7 5.3 -1.4 3.3 -1.9 6 -1.5 8.4 0.7 4.3 -0.2 8 -1.9 8 -0.8 0 -1.5 -2.2 -1.9 -6.2z m4.4 -10.8 c0.9 -1.6 0.8 -1.8 -0.5 -1.4 -0.8 0.4 -1.5 1.2 -1.5 2 0 2 0.7 1.7 2 -0.6z"/>
  <path d="M179.8 250.2 c-2.4 -5.2 -22 -27.4 -30.9 -35 -4.1 -3.5 -10.9 -8.7 -15.1 -11.5 -8.7 -5.8 -9.7 -7.7 -1.4 -2.7 10.6 6.4 25.3 19.7 35.7 32.2 5.6 6.7 11 13.5 12 15.2 1.2 2 1.9 2.5 1.9 1.4 0 -0.9 0.5 -2 1 -2.3 0.6 -0.4 1 0.8 1 2.9 0 4.7 -2 4.6 -4.2 -0.2z"/>
  <path d="M362 238.9 c0 -2.8 0.2 -3 1.6 -1.8 1.4 1.1 2 0.9 4.3 -1.7 1.4 -1.7 5.2 -6 8.4 -9.7 6.1 -7 22.5 -20.8 30.2 -25.2 7.5 -4.5 6 -2.3 -2.3 3.2 -14.3 9.4 -38 32.7 -37.6 36.8 0.1 1 -0.7 1.5 -2.2 1.5 -2 0 -2.4 -0.5 -2.4 -3.1z"/>
  <path d="M208.1 225.2 c0.9 -1.4 0.6 -3.1 -1.4 -8.2 -1.5 -3.5 -2.5 -6.5 -2.3 -6.7 0.3 -0.3 2.8 5.2 4.6 10.1 0.9 2.3 1.3 2.6 2.5 1.6 1.3 -1.1 1.5 -0.8 1.5 1.9 0 2.8 -0.3 3.1 -3 3.1 -2.7 0 -2.9 -0.2 -1.9 -1.8z"/>
  <path d="M331 210 c0 -2.5 0.8 -2.5 4 0 l2.5 2 -3.2 0 c-2.6 0 -3.3 -0.4 -3.3 -2z"/>
  <path d="M198.2 198.8 c-10.2 -19.2 -28.8 -43.1 -45.2 -57.9 -4.4 -4 -7.7 -7.5 -7.5 -7.8 0.9 -0.8 22.1 20.7 30.9 31.4 4.5 5.5 10.4 13.4 13.1 17.5 5.4 8.5 14.9 25.9 14.4 26.5 -0.2 0.2 -2.8 -4.2 -5.7 -9.7z"/>
  <path d="M334 208.6 c0 -1.4 9.2 -18.3 14.5 -26.6 2.7 -4.1 7.6 -10.9 10.9 -15 6.3 -7.9 31.5 -34 32.8 -34 0.4 0 -4.8 5.5 -11.5 12.3 -18.7 18.7 -31 34.9 -41.2 54 -3 5.6 -5.5 9.8 -5.5 9.3z"/>
  <path d="M142 133.8 c0 -2.7 0.4 -3.8 1.5 -3.8 1.9 0 1.9 1.7 0 5 l-1.4 2.5 -0.1 -3.7z"/>
  <path d="M394 134.4 c-1.4 -3.5 -1.3 -4.4 0.5 -4.4 1 0 1.5 1.1 1.5 3.5 0 4.1 -0.7 4.5 -2 0.9z"/>
 </g>
 <g fill="#aacdd9">
  <path d="M80 402.9 c1.3 -0.6 7.2 -0.9 13 -0.8 5.8 0.1 29.9 0.1 53.6 0 l43.1 -0.1 2.1 -5 c1.2 -2.7 2.6 -5 3.1 -5 1.5 0 1.4 6.7 -0.2 7.4 -0.6 0.3 11.9 0.4 27.9 0.3 23.9 -0.2 29.1 0 29 1.1 -0.1 1.1 2.6 1.4 12.9 1.3 11 0 13 -0.3 12.9 -1.6 -0.2 -1.3 3 -1.5 24.5 -1.5 13.5 0 25.6 -0.3 26.7 -0.6 1.6 -0.4 2.3 0 2.7 1.5 0.5 2.1 0.9 2.1 41.4 2.2 22.4 0.1 39.7 0.5 38.3 0.9 -3.8 1.2 -334.1 1.1 -331 -0.1z"/>
  <path d="M419 402.9 c-1.6 -0.5 -0.1 -0.7 4.4 -0.8 3.8 -0.1 6.7 0.2 6.3 0.5 -0.9 0.9 -7.8 1.1 -10.7 0.3z"/>
  <path d="M250 395.4 c0 -1.5 1 -5.8 2.2 -9.6 1.9 -5.7 2.5 -6.8 4.5 -6.8 l2.2 0 -3.2 9.2 c-3.2 9.3 -5.7 12.4 -5.7 7.2z"/>
  <path d="M274.6 391.8 c-1 -3.8 -0.7 -4.8 1.4 -4.8 1.6 0 2 0.7 2 3.5 0 4 -2.4 4.9 -3.4 1.3z"/>
  <path d="M196.9 384.3 c1 -2.7 8.7 -21.8 17 -42.6 8.3 -20.8 15.1 -38.6 15.1 -39.5 0 -0.9 1 -2.3 2.1 -3.1 2.1 -1.3 2.2 -1.2 1.7 4 -0.3 2.9 -1.1 5.5 -1.7 5.7 -0.6 0.2 -1.1 1.5 -1.1 2.8 0 1.3 -0.4 2.4 -1 2.4 -0.5 0 -1 1.1 -1 2.5 0 1.4 -0.4 2.5 -1 2.5 -0.5 0 -1 1.1 -1 2.5 0 1.4 -0.4 2.5 -1 2.5 -0.5 0 -1 0.8 -1 1.7 0 2.4 -2.3 8.3 -3.2 8.3 -0.4 0 -0.8 1.1 -0.8 2.5 0 1.4 -0.4 2.5 -1 2.5 -0.5 0 -1 1.1 -1 2.5 0 1.4 -0.4 2.5 -1 2.5 -0.5 0 -1 1.1 -1 2.5 0 1.4 -0.4 2.5 -1 2.5 -0.5 0 -1 1.1 -1 2.5 0 1.4 -0.4 2.5 -1 2.5 -0.5 0 -1 1.1 -1 2.5 0 1.4 -0.4 2.5 -1 2.5 -0.5 0 -1 1.1 -1 2.5 0 1.4 -0.4 2.5 -1 2.5 -0.5 0 -1 1.1 -1 2.5 0 1.4 -0.4 2.5 -1 2.5 -0.5 0 -1 1.1 -1 2.5 0 1.4 -0.4 2.5 -1 2.5 -0.5 0 -1 1.1 -1 2.5 0 1.4 -0.4 2.5 -1 2.5 -0.5 0 -1 1.1 -1 2.5 0 1.4 -0.4 2.5 -1 2.5 -0.5 0 -1 1.1 -1 2.5 0 2 -0.5 2.5 -2.5 2.5 l-2.5 0 1.9 -4.7z"/>
  <path d="M325 384.5 c0 -4 2.4 -4.9 3.4 -1.2 1 3.7 0.7 4.7 -1.4 4.7 -1.6 0 -2 -0.7 -2 -3.5z"/>
  <path d="M272.6 382.8 c-1 -3.8 -0.7 -4.8 1.4 -4.8 1.6 0 2 0.7 2 3.5 0 4 -2.4 4.9 -3.4 1.3z"/>
  <path d="M322.6 372.4 c-0.9 -6.9 -0.8 -8.4 0.8 -8.4 1.4 0 1.8 1.1 3.2 9.3 0.5 3.2 0.4 3.7 -1.4 3.7 -1.5 0 -2.1 -0.9 -2.6 -4.6z"/>
  <path d="M270.6 373.8 c-1 -3.8 -0.7 -4.8 1.4 -4.8 1.6 0 2 0.7 2 3.5 0 4 -2.4 4.9 -3.4 1.3z"/>
  <path d="M268.4 363 c-0.4 -2.4 -1.2 -4 -2 -4 -0.8 0 -1.4 0.7 -1.4 1.5 0 0.8 -0.4 1.5 -1 1.5 -0.5 0 -1 -1.6 -1 -3.5 0 -3.3 0.2 -3.5 3.5 -3.5 3.1 0 3.5 0.3 3.5 2.5 0 1.4 0.5 2.5 1 2.5 0.6 0 1 1.6 1 3.5 0 5.1 -2.8 4.7 -3.6 -0.5z"/>
  <path d="M320 356.5 c0 -4 2.4 -4.9 3.4 -1.2 1 3.7 0.7 4.7 -1.4 4.7 -1.6 0 -2 -0.7 -2 -3.5z"/>
  <path d="M318 345.1 c0 -6.8 1 -10.1 3.2 -10.1 1.8 0 1.9 0.4 1.2 3.8 -0.4 2 -0.7 5.2 -0.6 7 0.2 2.6 -0.2 3.2 -1.8 3.2 -1.7 0 -2 -0.7 -2 -3.9z"/>
  <path d="M321 329.5 c0 -2.8 0.4 -3.5 2 -3.5 2.1 0 2.4 1 1.4 4.8 -1 3.6 -3.4 2.7 -3.4 -1.3z"/>
  <path d="M319 305.5 c0 -3.3 0.2 -3.5 3.5 -3.5 2.4 0 3.5 0.5 3.5 1.5 0 0.8 -0.6 1.5 -1.4 1.5 -0.9 0 -1.2 0.7 -0.9 2 0.4 1.6 0 2 -2.1 2 -2.3 0 -2.6 -0.4 -2.6 -3.5z"/>
  <path d="M303 304.5 c0 -3.3 0.2 -3.5 3.5 -3.5 3.3 0 3.5 0.2 3.5 3.5 0 3.3 -0.2 3.5 -3.5 3.5 -3.3 0 -3.5 -0.2 -3.5 -3.5z"/>
  <path d="M286 303.5 c0 -3.3 0.2 -3.5 3.5 -3.5 3.7 0 5 2.5 1.8 3.3 -1.7 0.4 -1.7 0.5 0 0.6 0.9 0 1.7 0.8 1.7 1.6 0 1 -1.1 1.5 -3.5 1.5 -3.3 0 -3.5 -0.2 -3.5 -3.5z"/>
  <path d="M253 301.5 c0 -3.3 0.2 -3.5 3.5 -3.5 3.7 0 5 2.5 1.8 3.3 -1.7 0.4 -1.7 0.5 0 0.6 0.9 0 1.7 0.8 1.7 1.6 0 1 -1.1 1.5 -3.5 1.5 -3.3 0 -3.5 -0.2 -3.5 -3.5z"/>
  <path d="M237 300.5 c0 -3.3 0.2 -3.5 3.5 -3.5 3.7 0 5 2.5 1.8 3.3 -1.7 0.4 -1.7 0.5 0 0.6 0.9 0 1.7 0.8 1.7 1.6 0 1 -1.1 1.5 -3.5 1.5 -3.3 0 -3.5 -0.2 -3.5 -3.5z"/>
 </g>
 <g fill="#8ebad1">
  <path d="M190.4 401.3 c7.1 -19.7 40.4 -101.2 41.4 -101.3 3 -0.1 0.1 8.7 -16.9 51.2 -10 24.9 -18.3 45.9 -18.6 46.6 -0.4 0.9 5.1 1.2 25.5 1.2 l26 0 0.7 -3 c0.5 -2.3 1.2 -3 3 -3 l2.3 0 -1.6 5 -1.6 5 -30.4 0 c-28.5 0 -30.4 -0.1 -29.8 -1.7z"/>
  <path d="M277.2 399.8 c-0.7 -1.3 -3.1 -11 -5.4 -21.7 -2.4 -10.7 -4.7 -19.3 -5.3 -19.3 -0.5 0 -2.7 5.4 -5 11.8 -3.9 11.6 -6.5 15.4 -6.5 9.8 0 -1.6 1.7 -7.9 3.7 -14.1 l3.7 -11.3 4.1 0 4.1 0 4.7 21.3 c2.6 11.7 4.7 22.2 4.7 23.5 0 2.8 -1.3 2.8 -2.8 0z"/>
  <path d="M322.7 374.2 c-2.6 -14.7 -4.7 -28 -4.7 -29.7 0 -1.6 0.8 -7.2 1.7 -12.2 1.5 -7.5 2.1 -9.3 3.6 -9.3 2.2 0 2.2 2.4 -0.2 12.5 l-2 8 5 27.5 c2.7 15.1 4.9 28.1 4.9 28.8 0 0.6 -0.8 1.2 -1.7 1.2 -1.6 0 -2.5 -3.8 -6.6 -26.8z"/>
  <path d="M320.8 311.8 c-0.2 -1.5 -1.1 -2.4 -2.5 -2.6 -1.9 -0.3 -2.3 -1 -2.3 -3.8 0 -3.3 0.1 -3.4 3.9 -3.4 4.6 0 7.3 0.9 6.5 2.1 -0.3 0.5 -1.5 0.9 -2.7 0.9 -1.5 0 -1.8 0.3 -0.9 0.8 0.7 0.5 1.5 2.5 1.9 4.5 0.5 3.3 0.3 3.7 -1.5 3.7 -1.4 0 -2.2 -0.7 -2.4 -2.2z"/>
  <path d="M300 304.5 c0 -3.5 0 -3.5 4.5 -3.5 3.2 0 4.5 0.4 4.5 1.4 0 0.8 -0.8 1.7 -1.7 1.9 -1.7 0.4 -1.7 0.5 0 0.6 0.9 0 1.7 0.8 1.7 1.6 0 1.1 -1.2 1.5 -4.5 1.5 -4.5 0 -4.5 0 -4.5 -3.5z"/>
  <path d="M283 303.5 c0 -3.5 0 -3.5 4.5 -3.5 3.2 0 4.5 0.4 4.5 1.4 0 0.8 -0.8 1.7 -1.7 1.9 -1.7 0.4 -1.7 0.5 0 0.6 0.9 0 1.7 0.8 1.7 1.6 0 1.1 -1.2 1.5 -4.5 1.5 -4.5 0 -4.5 0 -4.5 -3.5z"/>
  <path d="M251 301.5 c0 -3.4 0.1 -3.5 4 -3.5 4.2 0 5.8 2.4 2.3 3.3 -1.7 0.4 -1.7 0.5 0 0.6 0.9 0 1.7 0.8 1.7 1.6 0 1.1 -1.1 1.5 -4 1.5 -3.9 0 -4 -0.1 -4 -3.5z"/>
  <path d="M235 300.5 c0 -3.4 0.1 -3.5 4 -3.5 4.2 0 5.8 2.4 2.3 3.3 -1.7 0.4 -1.7 0.5 0 0.6 0.9 0 1.7 0.8 1.7 1.6 0 1.1 -1.1 1.5 -4 1.5 -3.9 0 -4 -0.1 -4 -3.5z"/>
 </g>
 <g fill="#ffa439">
  <path d="M301.5 307.3 c-2.7 -0.1 -7.8 -0.5 -11.2 -0.9 -6.3 -0.6 -6.3 -0.6 -6.3 -3.8 0 -2.5 0.7 -3.5 3.3 -5.1 1.7 -1 5.7 -3.7 8.7 -6.1 l5.6 -4.2 13.9 6.4 c7.6 3.5 14 6.6 14.3 6.8 1.2 1.2 -4.2 4.6 -7.5 4.7 -2.2 0.1 -2.9 0.3 -1.8 0.6 8 1.9 -1.3 2.7 -19 1.6z m6.3 -3 c-1 -0.2 -2.6 -0.2 -3.5 0 -1 0.3 -0.2 0.5 1.7 0.5 1.9 0 2.7 -0.2 1.8 -0.5z m-16 -1 c-1 -0.2 -2.8 -0.2 -4 0 -1.3 0.2 -0.5 0.4 1.7 0.4 2.2 0.1 3.2 -0.1 2.3 -0.4z"/>
  <path d="M244.5 303.8 c-7.7 -0.5 -14.1 -1.1 -14.3 -1.3 -1.6 -1.5 2.5 -4.4 13.5 -9.6 l12.7 -6 5.8 5.8 c4.7 4.7 5.8 6.3 5.8 9 0 3.8 1.3 3.7 -23.5 2.1z m15.3 -2.5 c-1 -0.2 -2.8 -0.2 -4 0 -1.3 0.2 -0.5 0.4 1.7 0.4 2.2 0.1 3.2 -0.1 2.3 -0.4z m-17 -1 c-1 -0.2 -2.6 -0.2 -3.5 0 -1 0.3 -0.2 0.5 1.7 0.5 1.9 0 2.7 -0.2 1.8 -0.5z"/>
  <path d="M182.4 257.4 c-1.1 -2.6 -1.3 -4.6 -0.7 -6.5 0.5 -1.7 9.3 -10.4 23.8 -23.4 12.7 -11.3 23.8 -21.1 24.8 -21.6 1.4 -0.8 1.7 -0.5 1.7 1.9 0 1.6 -0.7 3.5 -1.5 4.2 -2.5 2.1 -5.7 12.2 -5.6 18 0 3 1 8.6 2.1 12.3 1.2 3.8 2 7.3 1.8 7.8 -0.2 0.5 -4.3 2.8 -9.2 4.9 -9.4 4.2 -14.2 5.9 -11.8 4.2 1.8 -1.2 -2.5 -4.3 -9.1 -6.5 -6.2 -2.1 -14.2 -1.3 -13.1 1.2 1.2 2.7 1 6.4 -0.4 6.8 -0.7 0.3 -1.9 -1.1 -2.8 -3.3z"/>
  <path d="M339.5 255.9 c-4.9 -2.2 -9.3 -4.3 -9.8 -4.8 -0.5 -0.5 -0.1 -4.2 0.8 -8.6 2.8 -12.6 1.1 -21.6 -6.1 -31.2 -1.3 -1.7 -2.4 -4.1 -2.4 -5.2 0 -2.1 0 -2.1 5 -0.2 7.7 2.9 13.5 7.8 31.9 26.7 14.6 15.1 17 18 16.5 20 -0.7 2.5 -3.4 3.4 -3.4 1 0 -0.8 -1.7 -1.6 -4.6 -2 -4.1 -0.5 -5.7 -0.1 -12.2 3 -5.4 2.6 -7.1 3.9 -6.1 4.5 3.1 1.9 -1.1 0.6 -9.6 -3.2z"/>
 </g>
 <g fill="#ff5a72">
  <path d="M122.6 345 c-6.1 -1.9 -9 -7.3 -6.1 -11.7 1.4 -2.1 2.3 -2.4 5.6 -2.1 3.1 0.3 3.9 0 3.9 -1.3 0 -2.2 3.5 -5.1 5.7 -4.7 3.6 0.7 5.4 9.1 3.7 17.7 -0.6 3 -0.9 3.1 -5.3 3 -2.5 0 -5.9 -0.5 -7.5 -0.9z"/>
  <path d="M265 307 c-5.5 -4.9 -5.5 -4.9 -2.5 -5 2.9 0 2.9 -0.1 -3.5 -6.5 -3.5 -3.5 -6.2 -6.6 -5.9 -6.9 0.2 -0.2 3.1 -1.7 6.4 -3.4 9.2 -4.6 42.4 -24.9 47.3 -28.9 2.4 -2 6.1 -5.9 8.3 -8.7 2.2 -2.8 4.3 -5.6 4.8 -6.2 0.5 -0.6 0.4 -1.8 -0.1 -2.9 -1 -1.6 -1.3 -1.5 -4.2 1.6 -3.3 3.7 -9.8 8.9 -11 8.9 -0.4 0 1.9 -2.2 5.2 -4.9 5.7 -4.8 11.2 -10.6 11.2 -11.9 0 -0.4 -0.5 -1.4 -1 -2.2 -0.8 -1.2 -1.6 -0.9 -4.7 2.1 -4.8 4.6 -14.3 11.3 -14.3 10.2 0 -0.4 2 -2 4.4 -3.6 5.8 -3.6 13.6 -10.6 13.6 -12 0 -0.7 -0.5 -1.9 -1 -2.7 -0.8 -1.2 -1.2 -1.1 -3.2 0.6 -3.8 3.5 -16.2 11.4 -16.7 10.7 -0.4 -0.3 -0.1 -0.8 0.6 -1 2 -0.7 13.7 -8.4 16.1 -10.6 1.2 -1.1 2.2 -2.6 2.2 -3.4 0 -2.4 -4.6 -1.4 -13.6 3.1 -13.8 6.9 -20.6 9.7 -20.1 8.3 0.2 -0.6 1 -1.1 1.6 -0.9 0.7 0.1 1 -0.2 0.6 -0.8 -0.4 -0.6 1 -3.2 2.9 -5.9 3.9 -5.2 3.9 -8.1 0.2 -8.1 -2.1 0 -8.3 5.5 -16.3 14.3 -3.6 3.9 -6 5.3 -15.5 9.1 -6.2 2.4 -20.7 8.5 -32.3 13.5 -11.5 5 -21.4 9.1 -22 9.1 -0.5 0 0.8 -0.9 3 -1.8 2.6 -1.2 3.5 -2.1 2.7 -2.6 -0.7 -0.4 -1 -1.2 -0.6 -1.7 0.4 -0.6 1.1 -0.6 2 0.2 1.4 1.1 2.1 1 12.6 -3.5 l3.6 -1.5 -2 -6.3 c-2.9 -8.9 -2.8 -21.4 0.1 -28.9 2.7 -7.1 8.6 -13 17.1 -17.2 5.7 -2.8 7.4 -3.2 14.5 -3.2 8.5 0.1 15.7 2.4 20.1 6.6 l2.2 2.1 8.2 -2.8 c11.1 -3.6 23.2 -3.9 30.4 -0.6 7.7 3.5 10.9 6.5 14.6 13.4 3 5.5 3.5 7.4 3.8 15.3 0.2 5.8 -0.1 11.3 -1.1 15.3 l-1.5 6.4 6.5 2.9 c7 3.1 8.8 3.5 9.8 1.9 0.4 -0.6 1.1 -0.7 1.7 -0.4 0.7 0.5 0.5 1.1 -0.6 1.9 -1.5 1.1 -1.2 1.5 2.4 2.9 2.2 0.9 4 1.8 4 2.1 0 0.6 -0.1 0.5 -21.6 -8.9 -8.4 -3.6 -15.6 -6.6 -16.1 -6.6 -0.5 0 -3.1 2.3 -5.8 5.1 -4.6 4.8 -18.2 14.3 -28.2 19.9 -2.4 1.3 -4.3 2.7 -4.3 3 0 0.4 4.8 3.2 10.8 6.3 16.1 8.4 15.5 7.6 8.6 12.8 -3.3 2.5 -7.7 5.6 -9.9 6.9 -3.7 2.3 -3.8 2.5 -1.6 3 3 0.7 1.8 1.7 -6 5.4 -8.1 3.8 -10.4 3.4 -16.9 -2.4z m-21.1 -63.6 c0.3 -0.2 -0.8 -1.8 -2.4 -3.4 -2.3 -2.4 -3.1 -2.7 -3.7 -1.6 -0.4 0.8 -0.4 2.6 0.2 4.1 0.8 2.1 1.4 2.5 3.3 1.9 1.2 -0.3 2.4 -0.8 2.6 -1z m6.1 -2.4 c1.7 -1 1.8 -0.9 -6.2 -7.3 -3.1 -2.5 -5.9 -4.3 -6.2 -4 -1.4 1.4 -0.4 4.2 3 8.1 3.6 4.2 6.3 5.2 9.4 3.2z m10.7 -4.2 c5.6 -2.1 9.3 -4.4 9.3 -5.8 0 -1.3 -25.2 -12.1 -27.4 -11.8 -4.1 0.6 -2 3.4 7.6 9.7 5.4 3.6 9.6 6.7 9.3 6.9 -0.2 0.2 -4.6 -2.5 -9.9 -6.1 -5.2 -3.6 -9.7 -6.2 -10 -5.9 -0.3 0.3 -0.6 1.5 -0.6 2.8 0 2.5 11.2 12.3 14.2 12.4 0.9 0 4.2 -1 7.5 -2.2z m14.2 -11 l3 -3.3 -3.2 -3.3 c-3.7 -3.9 -8 -4.1 -8.5 -0.5 -0.3 1.8 4.2 10.3 5.4 10.3 0.3 0 1.7 -1.5 3.3 -3.2z"/>
  <path d="M431.6 299.7 c-4.9 -6.4 -5.9 -12.4 -2.6 -15.7 3 -3 7.7 -2.6 9.7 0.8 1.5 2.6 1.9 2.8 4.4 1.8 2.3 -0.8 3.2 -0.7 4.8 0.9 2.6 2.3 2.6 3 0.1 6.5 -2.2 3 -10.5 9 -12.6 9 -0.7 0 -2.4 -1.5 -3.8 -3.3z"/>
  <path d="M264 188 c-1.1 -0.9 -0.5 -1 2.7 -0.5 2.2 0.4 5.8 0.2 7.9 -0.4 2.8 -0.8 3.4 -0.7 2.6 0.1 -1.6 1.6 -11.4 2.1 -13.2 0.8z"/>
  <path d="M264.7 168.5 c3.4 -0.7 7.1 -1.9 8.3 -2.5 1.7 -0.9 2.1 -0.9 1.5 0 -1.2 2 -7.2 4 -11.7 3.9 -4.2 -0.1 -4.2 -0.1 1.9 -1.4z"/>
  <path d="M295.1 168.5 c-0.2 -3.4 6.7 -10 8.6 -8.2 0.2 0.3 -0.5 0.8 -1.7 1.2 -2 0.6 -2.1 0.7 -0.3 2.1 1.7 1.2 1.6 1.3 -0.8 1.4 -1.6 0 -3.3 0.9 -4.2 2.3 -0.9 1.2 -1.6 1.8 -1.6 1.2z"/>
  <path d="M255.8 163.9 c-2.5 -1.4 -2.3 -5 0.3 -5.6 1.2 -0.3 2.7 -2 3.5 -3.7 1.3 -2.9 1.3 -3 1.3 -0.6 0.1 3.2 -0.9 4.7 -3.4 5.1 -2.7 0.6 -2.5 3.3 0.3 3.7 1.2 0.2 2.2 0.8 2.2 1.3 0 1.2 -2 1.1 -4.2 -0.2z"/>
  <path d="M289 159.2 c0 -0.5 0.5 -3.3 1 -6.2 0.9 -4.9 0.8 -5.6 -1.2 -7.7 l-2.1 -2.3 3.6 0 3.7 0 0 4.5 c0 2.5 0.5 4.5 1 4.5 0.6 0 1 -0.5 1 -1.1 0 -0.8 1.7 -1 5.6 -0.5 5.5 0.6 5.6 0.6 6.7 -2.4 1.2 -3.3 4.7 -4.2 4.7 -1.2 -0.1 2.3 -3.7 10.2 -4.7 10.2 -0.4 -0.1 -1.9 -0.7 -3.3 -1.5 -4.1 -2.3 -8.2 -1.8 -12.3 1.6 -2 1.7 -3.7 2.6 -3.7 2.1z"/>
  <path d="M268.2 153.8 c-1.7 -1.7 -1.5 -3.3 0.3 -1.8 0.8 0.7 3.9 1.2 6.8 1.2 3.7 -0.1 4.8 0.1 3.7 0.8 -2.1 1.4 -9.4 1.2 -10.8 -0.2z"/>
  <path d="M247.9 151.9 c-2.1 -1.8 -2.1 -2 -0.4 -1.3 1.1 0.4 3.5 0.9 5.4 1.2 2.3 0.3 2.9 0.7 2 1.3 -2.3 1.4 -4.5 1 -7 -1.2z"/>
  <path d="M118 144 c0 -1.3 -0.9 -2.2 -2.7 -2.6 -16.2 -3.7 -29 -8 -34.8 -11.8 -5.8 -3.8 -0.2 -5 6.8 -1.5 5 2.6 18.9 7.5 23.7 8.4 3.4 0.6 3.6 0.4 5.2 -3.6 1.6 -3.7 1.6 -4.4 0.3 -7 -0.8 -1.5 -1.5 -4.6 -1.5 -6.7 0 -4.7 2.4 -6.2 9.9 -6.2 4.7 0 4.9 -0.1 5.5 -3.2 1.2 -5.5 0.9 -7.6 -1.3 -9.9 -1.2 -1.3 -2.1 -2.6 -2.1 -3 0 -1 -7.8 -8.6 -9.5 -9.3 -0.8 -0.3 -1.5 -1 -1.5 -1.6 0 -0.5 -0.6 -1 -1.4 -1 -0.8 0 -2.1 -0.6 -2.8 -1.3 -0.7 -0.8 -3 -2 -5.1 -2.6 -4 -1.4 -4.5 -2.2 -2.3 -4.1 1.2 -0.9 2.6 -0.6 6.7 1.5 11.2 5.6 18.2 12.2 23 21.5 1.2 2.5 2.4 4.7 2.5 4.8 0.1 0.2 1.6 -0.6 3.3 -1.9 1.7 -1.2 3.4 -1.9 3.8 -1.5 1.4 1.4 1.6 29.4 0.2 32.8 -1.4 3.4 -6.3 6 -18.3 9.7 -8.2 2.5 -7.6 2.5 -7.6 0.1z"/>
  <path d="M277.2 144.2 c-1.3 -0.8 -4 -1.6 -6 -1.7 -4.9 -0.3 -4.7 -1.9 0.2 -2.3 l3.9 -0.3 -5.1 -3 c-2.8 -1.6 -5.3 -2.9 -5.5 -2.9 -0.3 0 -0.7 0.9 -1 2 -0.7 2.8 -2.1 2.5 -5.5 -1.4 l-3 -3.4 -2.5 2.5 -2.5 2.6 -1.2 -2.3 c-0.9 -1.8 -0.9 -2.5 0.6 -4.1 3 -3.3 10.3 -2.3 10.5 1.5 0.1 1.6 0.2 1.7 0.6 0.4 0.6 -2.3 8.1 -2.6 8.9 -0.4 0.3 0.8 1.6 1.7 3 2 1.3 0.4 2.4 1 2.4 1.5 0 0.5 1.8 1.2 4 1.6 3.1 0.5 4 1.1 4 2.7 0 1.8 -0.5 2 -3.5 1.5 -3.6 -0.6 -3.6 -0.6 -1.4 1.2 2.9 2.4 2.1 4.4 -0.9 2.3z"/>
  <path d="M408.8 142.6 c-12.3 -4.2 -14.5 -5.7 -15.4 -10.1 -0.8 -4.5 -0.1 -30.1 0.9 -31.1 0.4 -0.4 2 0.2 3.6 1.4 l2.9 2.1 3.2 -5.7 c4.2 -7.5 13.2 -15.9 21.6 -20.1 l6.8 -3.4 1.8 2.3 c2.4 3 2.4 6 -0.2 6 -1.2 0 -2 -0.7 -2 -1.6 0 -1.1 -0.5 -1.4 -1.6 -1 -0.9 0.3 -2.4 0.6 -3.5 0.6 -1 0 -1.9 0.5 -1.9 1.1 0 1.6 -3.1 3.8 -5.2 3.9 -1 0 -1.8 0.6 -1.8 1.4 0 0.7 -1.8 3 -4 5 -2.2 2 -4 4 -4 4.6 0 0.5 -0.4 1 -0.8 1 -1.8 0 -3 5.9 -1.9 9.9 1.1 4.1 1.2 4.1 5.9 4.1 7.4 0 9.8 1.5 9.8 6.2 0 2.1 -0.7 5.2 -1.5 6.7 -1.3 2.6 -1.3 3.3 0.3 7 0.9 2.2 2.2 4.1 2.9 4.1 2.3 0 17.9 -5.2 24.6 -8.2 6 -2.8 8.4 -4.8 5.7 -4.8 -0.5 0 -1 -1.6 -1 -3.7 0 -3.5 0.1 -3.6 1.9 -1.9 2.5 2.2 4.5 7.1 3.8 9 -1.2 3.2 -18.9 10.2 -32.2 12.9 -5.9 1.1 -7.1 1.7 -7.3 3.5 -0.2 1.2 -0.6 2.2 -1 2.2 -0.4 0 -5.1 -1.5 -10.4 -3.4z"/>
  <path d="M250 139.4 c1.5 -1.8 7.1 -1.5 7.8 0.4 0.2 0.8 -1 1.2 -4.3 1.2 -4.2 0 -4.6 -0.2 -3.5 -1.6z"/>
  <path d="M308 136 c0 -1.1 -0.6 -2 -1.3 -2 -2 0 -4.7 -3.3 -4.7 -5.8 0 -1.8 -0.6 -2.2 -3.5 -2.2 -3.1 0 -3.5 -0.3 -3.5 -2.5 0 -1.4 0.4 -2.5 0.8 -2.5 1.6 0 11.7 7.8 13.8 10.6 3.5 4.9 3.7 6.4 0.9 6.4 -1.8 0 -2.5 -0.5 -2.5 -2z"/>
  <path d="M249 121.1 c0 -1.1 4.3 -4.2 8.1 -5.8 6.6 -2.8 18.9 -2.7 18.9 0.1 0 0.9 -2.5 1.5 -8.7 1.9 -5 0.3 -8.9 1 -9.1 1.6 -0.2 0.6 -1 1.1 -1.8 1.1 -0.8 0 -1.4 0.5 -1.4 1 0 0.6 -1.3 1 -3 1 -1.6 0 -3 -0.4 -3 -0.9z"/>
  <path d="M287 121 c0 -0.5 -1.1 -1 -2.5 -1 -1.8 0 -2.5 -0.5 -2.5 -2 0 -2.5 1.6 -2.5 7.4 0 5.5 2.3 5.9 4 1.1 4 -1.9 0 -3.5 -0.4 -3.5 -1z"/>
  <path d="M85.5 117 c-0.3 -0.5 0.1 -1 0.9 -1 1.3 0 1.3 -0.6 -0.4 -3.8 -1.1 -2 -2.2 -5.2 -2.6 -7 -0.6 -2.8 -0.4 -3.2 1.5 -3.2 1.7 0 2.1 0.6 2.1 3 0 1.7 0.5 3 1 3 0.6 0 1 0.7 1 1.5 0 0.8 0.5 1.5 1 1.5 0.6 0 1 1.6 1 3.5 0 3 -0.3 3.5 -2.4 3.5 -1.4 0 -2.8 -0.4 -3.1 -1z"/>
  <path d="M93 112 c0 -10.4 4.5 -16 13.4 -16.8 l5.4 -0.4 1.6 5.5 c0.9 3 1.6 7.4 1.6 9.6 0 3.7 -0.2 4.1 -2.5 4.1 -1.4 0 -4.8 0.9 -7.7 2 -2.9 1.1 -6.8 2 -8.5 2 l-3.3 0 0 -6z"/>
  <path d="M435.8 117 c-0.9 -0.6 -4.3 -1.6 -7.5 -2.3 -5.2 -1.2 -5.8 -1.6 -6.1 -4.1 -0.2 -1.5 0.6 -5.6 1.8 -9.1 l2.2 -6.5 3.9 0 c3.7 0 3.9 -0.2 3.9 -3 0 -1.6 0.5 -3 1 -3 0.6 0 1 0.6 1 1.3 0 0.7 1.7 1.3 4.5 1.4 4.6 0.2 9.3 2.1 11.4 4.7 1.2 1.4 0.9 1.6 -2 1.6 -1.9 -0.1 -4.5 -0.7 -5.9 -1.5 -1.4 -0.8 -4.1 -1.4 -6 -1.4 -1.9 0 -2.8 0.3 -2 0.6 2.3 0.9 6 4.5 7.6 7.5 0.8 1.5 1.4 5.4 1.4 8.8 l0 6 -3.7 0 c-2.1 0 -4.6 -0.5 -5.5 -1z"/>
  <path d="M449 112.5 c0 -5 2.2 -10.5 4.2 -10.5 1 0 1.8 0.5 1.8 1.1 0 2.8 -2.5 9 -4.2 10.5 -1.7 1.6 -1.8 1.6 -1.8 -1.1z"/>
  <path d="M185 109.7 c-7.4 -3.6 -10.4 -9.9 -6.8 -14.4 1.3 -1.6 7.4 -1.7 8.3 -0.3 0.4 0.7 1.6 0.1 3 -1.5 4.5 -4.8 9.1 -2.4 8.3 4.3 -0.8 5.7 -4.8 14.2 -6.7 14.2 -0.9 -0.1 -3.6 -1.1 -6.1 -2.3z"/>
  <path d="M356.4 102.4 c-1 -6.6 0.1 -11.5 3.1 -14.1 3.2 -2.8 4.5 -2.9 8 -0.2 2.1 1.8 2.6 2.8 2.1 5 -0.4 2.2 -0.2 2.7 0.9 2.2 2.1 -0.7 6.5 2.4 6.5 4.6 0 1 -0.8 2.5 -1.8 3.4 -1.9 1.7 -10.2 3.7 -15.3 3.7 -2.5 0 -2.8 -0.4 -3.5 -4.6z"/>
  <path d="M291.7 99.5 c-6.4 -4.4 -8.8 -12.3 -4.7 -16 1.7 -1.5 2.4 -1.6 4.5 -0.7 1.4 0.7 3 2.2 3.6 3.5 l1.1 2.4 2.4 -2.3 c1.2 -1.3 2.9 -2.4 3.7 -2.4 2.4 0 3.9 2.7 3.2 5.7 -0.7 3.5 -7.1 12.3 -8.8 12.3 -0.7 0 -2.9 -1.1 -5 -2.5z"/>
  <path d="M86.1 96.4 c1.6 -1.9 6.3 -4.4 8.4 -4.4 0.8 0 1.5 0.9 1.5 2 0 1.3 -0.7 2 -2 2 -1.1 0 -2 0.5 -2 1 0 0.6 -1.6 1 -3.6 1 -3.2 0 -3.5 -0.2 -2.3 -1.6z"/>
  <path d="M232.6 64 c-9.4 -3.7 -15.5 -12.4 -12.2 -17.4 2 -3.1 6.2 -4.1 9.1 -2.2 2 1.3 2.4 1.3 2.9 0.1 1 -2.8 5.4 -4.8 9.2 -4.1 7.3 1.4 7.7 11.5 0.8 20.9 -1.9 2.6 -3.8 4.7 -4.2 4.7 -0.4 -0.1 -2.9 -1 -5.6 -2z"/>
  <path d="M310.4 62.1 c-6 -4.3 -7.6 -6.6 -8.1 -11.5 -0.7 -6.2 1.5 -9.6 6.2 -9.6 2.1 0 4.3 0.8 5.4 1.9 1.6 1.6 2.4 1.7 6 0.8 4.7 -1.3 6.9 -0.5 8.8 3.3 0.8 1.6 0.8 3.1 0.1 5.1 -1.1 3.1 -7.1 9 -11.6 11.3 -2.8 1.5 -3.2 1.4 -6.8 -1.3z"/>
 </g>
 <g fill="#ff8740">
  <path d="M283 305.4 c0 -0.8 2.8 -3 5.5 -4.5 1.3 -0.7 1.1 -0.3 -0.5 1 l-2.5 2.1 3.5 0 c2.6 0 3.1 0.3 2 1 -1.7 1.1 -8 1.4 -8 0.4z"/>
  <path d="M183.2 258.5 c-0.7 -1.4 -1.2 -4.4 -1.2 -6.6 l0 -4 5.3 0.7 c2.8 0.3 7.7 1.3 10.8 2.1 6.3 1.7 14.7 6.7 13 7.7 -0.6 0.4 -2.6 -0.4 -4.3 -1.7 -3.1 -2.4 -14.4 -6.5 -15.1 -5.6 -0.2 0.2 -1.6 2.5 -3.1 5.2 -1.5 2.6 -3 4.7 -3.5 4.7 -0.4 0 -1.3 -1.1 -1.9 -2.5z"/>
  <path d="M346.1 258.1 c-0.6 -0.4 3 -2.6 7.9 -4.9 8 -3.9 9.6 -4.3 15.2 -4 6.1 0.3 6.3 0.4 6 2.8 -0.4 2.9 -2.8 7 -4.2 7 -0.5 0 -1.9 -1.8 -3 -4 -1.2 -2.4 -2.8 -4 -3.8 -4 -1 0 -5.2 1.7 -9.4 3.9 -4.2 2.1 -8.1 3.5 -8.7 3.2z"/>
  <path d="M221.3 229.5 c0 -2.2 0.2 -3 0.4 -1.7 0.2 1.2 0.2 3 0 4 -0.3 0.9 -0.5 -0.1 -0.4 -2.3z"/>
 </g>
 <g fill="#ff4163">
  <path d="M106.5 139 c-15.1 -3.8 -28.5 -9.9 -28.5 -12.8 0 -2.8 3.8 -8.2 6.7 -9.5 1.6 -0.6 3 -1.4 3.3 -1.8 0.3 -0.3 1.2 -0.8 2.1 -1.1 1.1 -0.4 1.9 -2.4 2.4 -5.5 0.8 -5.7 4.6 -11.1 8.6 -12.5 3.2 -1.1 3.4 -2.2 1.8 -9.7 -1.2 -5.6 -0.1 -9.1 2.9 -9.1 6.5 0 23.4 13.9 28.2 23.2 2.4 4.6 2.4 4.8 0.7 8.3 -0.9 1.9 -1.7 4.6 -1.7 5.9 0 2.2 -0.3 2.3 -4.5 1.8 -4.5 -0.5 -10.5 1.2 -10.5 3 0 1.7 4 8.8 5 8.8 0.5 0 -0.2 1.7 -1.6 3.8 -1.4 2 -2.8 4.9 -3.1 6.5 -0.7 3.2 -1.9 3.3 -11.8 0.7z m-4.7 -26 c2.9 -1.1 6.3 -2 7.7 -2 2.9 0 3 -0.5 0.9 -7.7 -1.5 -5.2 -1.7 -5.4 -4.2 -4.8 -5.3 1.3 -10.2 7.8 -10.2 13.5 0 1.6 0.1 3 0.3 3 0.1 0 2.6 -0.9 5.5 -2z"/>
  <path d="M419.7 138.3 c-0.3 -1.5 -1.7 -4.5 -3.1 -6.5 -1.4 -2.1 -2.1 -3.8 -1.6 -3.8 1 0 5 -7.1 5 -8.8 0 -1.8 -6 -3.5 -10.5 -3 -4.1 0.5 -4.5 0.4 -4.5 -1.6 0 -1.2 -0.9 -3.7 -1.9 -5.6 l-1.9 -3.5 3.1 -5.8 c3.7 -7.1 13.6 -16.5 21 -20.2 8.6 -4.1 9.2 -3.6 9 6.7 l-0.2 8.6 2.8 1 c4.1 1.4 7.8 6.9 8.6 12.6 0.6 3.5 1.3 5 2.6 5.3 1.1 0.3 1.9 0.9 1.9 1.3 0 0.4 1.1 1.1 2.4 1.4 2.8 0.7 6.1 4.9 7.1 8.8 0.6 2.5 0.2 2.9 -5.2 5.6 -6.8 3.5 -22.8 8.7 -29.4 9.7 -4.5 0.7 -4.6 0.6 -5.2 -2.2z m22.3 -26.3 c0 -5.7 -4.9 -12.2 -10.1 -13.5 -2.5 -0.6 -2.8 -0.3 -4.7 5.5 -1.5 4.4 -1.8 6.2 -0.9 6.5 0.7 0.2 3.5 0.8 6.2 1.5 2.8 0.6 5.7 1.5 6.5 2 2.4 1.6 3 1.2 3 -2z"/>
  <path d="M85.1 110.2 c-0.5 -0.9 -1.2 -3.4 -1.6 -5.5 -0.6 -3.3 -0.5 -3.7 1.3 -3.7 1.4 0 2.1 0.9 2.6 3.1 1.3 6.9 0 10.4 -2.3 6.1z"/>
  <path d="M451 105.8 c0 -3.9 -1.2 -6.8 -2.6 -6.8 -0.8 0 -1.4 -1 -1.4 -2.5 0 -1.4 0.4 -2.5 0.9 -2.5 2 0 7.1 5.3 7.1 7.3 0 3.8 -1.2 6.7 -2.6 6.7 -0.8 0 -1.4 -1 -1.4 -2.2z"/>
  <path d="M86.9 96 c4.7 -4 7.1 -4.5 7.1 -1.4 0 1.5 -0.6 2.4 -1.5 2.4 -0.8 0 -1.5 0.5 -1.5 1 0 0.6 -1.7 1 -3.7 1 l-3.8 -0.1 3.4 -2.9z"/>
 </g>
 <g fill="#3787d0">
  <path d="M191.3 400.3 c0.2 -1 9 -23.3 19.6 -49.6 10.5 -26.2 19.1 -48.4 19.1 -49.3 0 -1.4 0.9 -1.6 6.8 -1.1 3.7 0.4 11.7 0.9 17.9 1.3 10.9 0.6 11.4 0.8 15.1 4 l3.9 3.3 5.6 -2.7 5.7 -2.7 18.5 1.1 c10.9 0.6 19 1.5 19.7 2.2 2.2 2.2 2.2 15.4 -0.1 26.8 l-2.2 10.9 5.1 27.9 c2.7 15.4 5 28.3 5 28.8 0 0.4 -11.9 0.8 -26.3 0.8 l-26.4 0 -1 -2.2 c-0.6 -1.3 -3 -11.2 -5.4 -22 -2.3 -10.9 -4.8 -19.8 -5.3 -19.8 -0.6 0 -4.4 9.9 -8.5 22 l-7.4 22 -30 0 c-28 0 -29.9 -0.1 -29.4 -1.7z"/>
 </g>
 <g fill="#e42851">
  <path d="M291.2 155.4 c-0.8 -0.9 -1.1 -2.6 -0.6 -4.9 0.5 -3.1 0.2 -3.8 -2.7 -6.2 -1.8 -1.6 -5.6 -3.3 -8.6 -4 -5 -1.2 -12.4 -5.1 -13.8 -7.3 -0.4 -0.6 0.7 -1 2.9 -1 2.5 0 3.6 0.5 3.6 1.4 0 1 1.7 1.7 5.5 2.1 3 0.4 5.5 1.1 5.5 1.6 0 0.5 1.4 0.9 3 0.9 2.3 0 3 0.4 3 2 0 1.3 0.7 2 2 2 1.4 0 2 0.7 2 2.3 0 5.5 0.8 6.2 6.1 5.9 4.4 -0.4 4.9 -0.2 4.9 1.7 0 1.7 -0.6 2 -3.4 1.9 -1.9 -0.1 -4.5 0.6 -5.8 1.4 -2 1.3 -2.5 1.3 -3.6 0.2z"/>
  <path d="M268 153.5 c-1.6 -1.9 -1.1 -1.9 3.1 0 3.3 1.4 3.3 1.4 0.8 1.5 -1.5 0 -3.2 -0.7 -3.9 -1.5z"/>
  <path d="M247.5 152 c-0.7 -1.2 0.2 -1.2 3 0 1.9 0.8 1.9 0.9 -0.2 0.9 -1.2 0.1 -2.5 -0.3 -2.8 -0.9z"/>
  <path d="M276 143.5 c-1.4 -0.8 -3.3 -1.4 -4.2 -1.5 -2.5 0 -2.2 -2 0.2 -2 2.6 0 8 2.7 8 4 0 1.3 -1 1.2 -4 -0.5z"/>
  <path d="M309 137.5 c0 -3.9 1.4 -4.6 3 -1.6 1.6 3.1 1.2 5.1 -1 5.1 -1.6 0 -2 -0.7 -2 -3.5z"/>
  <path d="M258.1 134.3 c-2.5 -3.1 -3.2 -3.4 -4.5 -2.3 -1.4 1.1 -1.6 0.8 -1.6 -1.9 0 -2.9 0.2 -3.1 3.5 -3.1 3.3 0 3.5 0.2 3.5 3.5 0 3.1 0.3 3.5 2.5 3.5 2.7 0 2.8 0.1 1.9 2.4 -0.9 2.4 -1.9 2 -5.3 -2.1z"/>
  <path d="M456.5 124.3 c-1.6 -1.3 -5.3 -3.8 -8.1 -5.4 -4.8 -2.8 -5.2 -3.3 -5.9 -7.7 -0.8 -5.8 -4.5 -10.8 -9.4 -12.8 l-3.7 -1.5 1.3 -6.2 c0.7 -3.4 1.3 -7.9 1.3 -9.9 0 -2.1 0.5 -3.8 1 -3.8 1.6 0 3 4.6 3 10.1 l0 4.9 4.2 0 c4.9 0 11.7 3.7 13.7 7.3 1.1 2.1 1.1 3.3 -0.3 8 -0.9 3.1 -2.1 5.9 -2.6 6.2 -1.8 1.1 -1.1 2.2 2.1 3.5 2.6 1.1 7.8 8.4 6.7 9.5 -0.2 0.2 -1.6 -0.8 -3.3 -2.2z"/>
  <path d="M78.7 124.3 c1.1 -3 4.4 -7.3 5.6 -7.3 3.2 -0.1 3.7 -1.6 1.6 -5.7 -1.1 -2.2 -2.1 -6 -2.2 -8.4 -0.2 -4.2 0 -4.5 4.7 -7.6 3.6 -2.5 5.9 -3.3 9.2 -3.3 l4.4 0 0 -4.9 c0 -5.5 1.4 -10.1 3 -10.1 0.5 0 1 1.7 1 3.8 0 2 0.6 6.5 1.3 9.9 l1.3 6.2 -3.7 1.5 c-4.9 2 -8.6 7 -9.4 12.9 -0.6 4 -1.2 5 -3.9 6.4 -1.7 0.8 -5.2 3.1 -7.9 4.9 -5.4 3.9 -5.9 4 -5 1.7z"/>
  <path d="M248 123 c0 -0.6 1.2 -2.2 2.8 -3.7 2.7 -2.5 2.7 -2.5 3 -0.3 0.2 1.2 0.1 2.8 -0.2 3.6 -0.6 1.6 -5.6 1.9 -5.6 0.4z"/>
  <path d="M289 120.5 c0 -2.4 0.1 -2.5 3.2 -1.2 4.6 1.9 4.8 3.7 0.4 3.7 -3.2 0 -3.6 -0.3 -3.6 -2.5z"/>
  <path d="M268.8 117.3 c-4.1 -0.3 -5.8 -0.8 -5.8 -1.8 0 -2 5.2 -2.8 11.6 -1.6 3.2 0.6 5.9 1.1 6.1 1.1 0.2 0 0.3 0.7 0.3 1.5 0 1.1 -0.9 1.4 -3.2 1.3 -1.8 -0.1 -5.9 -0.3 -9 -0.5z"/>
 </g>
 <g fill="#8e0c4d">
  <path d="M290.4 153.2 c0.7 -6.1 0.6 -6.4 -2.5 -9.2 -1.7 -1.7 -4.2 -3 -5.5 -3 -1.3 0 -2.4 -0.4 -2.4 -0.9 0 -0.5 -0.8 -0.7 -1.7 -0.5 -1 0.3 -4.4 -1.1 -7.7 -3.1 -3.2 -1.9 -6 -3.5 -6.1 -3.5 -0.2 0 -0.6 1.1 -0.9 2.5 -0.6 2.2 -0.9 2.4 -2.7 1.5 -1.1 -0.6 -2.8 -2.4 -3.8 -4.1 l-1.8 -2.9 -2.4 2.6 -2.4 2.5 -1.7 -2.1 c-4.4 -5.4 -0.2 -14 8.5 -17.5 12.3 -4.9 36 1.2 48.1 12.4 5.6 5.2 7.6 9.3 7.6 15.1 0 4.1 -3.7 14.4 -4.9 13.7 -7.6 -4.2 -10.7 -4.2 -15.5 0.2 l-2.9 2.6 0.7 -6.3z"/>
  <path d="M268.4 153.4 c-1 -0.8 -1.2 -1.2 -0.4 -0.8 0.8 0.5 3.3 1.1 5.5 1.5 l4 0.6 -3.6 0.2 c-1.9 0 -4.4 -0.6 -5.5 -1.5z"/>
  <path d="M247.6 152.2 c-0.2 -0.4 1.2 -0.6 3.2 -0.4 5.6 0.5 6.2 1 1.5 1.1 -2.3 0.1 -4.4 -0.3 -4.7 -0.7z"/>
  <path d="M276 143.4 c-1.4 -0.7 -3.7 -1.4 -5.2 -1.4 -1.6 0 -2.8 -0.4 -2.8 -1 0 -2.1 6.9 -1 9.7 1.5 3.1 2.7 2.3 3.1 -1.7 0.9z"/>
  <path d="M250.7 139.3 c2 -1.5 5.5 -1.4 6 0.2 0.1 0.6 -1.5 1 -3.8 1.1 -3.6 0 -3.9 -0.1 -2.2 -1.3z"/>
 </g>
</svg>